<?xml version="1.0" encoding="UTF-8" standalone="no"?>
<!-- Created with Inkscape (http://www.inkscape.org/) -->

<svg
   width="24"
   height="24"
   viewBox="0 0 24 24"
   version="1.1"
   id="svg1"
   xmlns:xlink="http://www.w3.org/1999/xlink"
   xmlns="http://www.w3.org/2000/svg"
   xmlns:svg="http://www.w3.org/2000/svg">
  <defs
     id="defs1">
    <pattern
       xlink:href="#Strips1_1"
       preserveAspectRatio="xMidYMid"
       id="pattern4"
       patternTransform="rotate(45)"
       x="1.5"
       y="0" />
    <pattern
       patternUnits="userSpaceOnUse"
       width="2"
       height="10"
       patternTransform="translate(0,0) scale(2,2)"
       preserveAspectRatio="xMidYMid"
       id="Strips1_1"
       style="fill:#000000">
      <rect
         style="stroke:none"
         x="0"
         y="-0.5"
         width="1"
         height="11"
         id="rect134" />
    </pattern>
  </defs>
  <g
     id="layer1">
    <rect
       style="fill:none;stroke:#000000;stroke-width:2;stroke-linecap:round;stroke-linejoin:miter;stroke-dasharray:none"
       id="rect23"
       width="18"
       height="18"
       x="3"
       y="3"
       ry="3.0999999" />
    <path
       d="m 18,4 c -0.14987,1.887e-4 -0.299248,0.017223 -0.445313,0.050781 -0.145651,0.032925 -0.28716,0.08206 -0.421875,0.1464844 -0.134819,0.064999 -0.261918,0.1449273 -0.378906,0.2382813 -0.117763,0.093798 -0.224561,0.2005962 -0.318359,0.3183593 -0.09335,0.1169874 -0.173283,0.2440872 -0.238281,0.3789063 -0.06442,0.1347144 -0.113559,0.2762236 -0.146485,0.421875 C 16.017223,5.7007523 16.000189,5.8501299 16,6 v 12 c 1.89e-4,0.149871 0.01722,0.299247 0.05078,0.445312 0.03293,0.145653 0.08206,0.28716 0.146485,0.421875 0.065,0.13482 0.144926,0.261919 0.238281,0.378907 0.0938,0.117764 0.200595,0.22456 0.318359,0.318359 0.116988,0.09335 0.244087,0.173282 0.378906,0.238281 0.134716,0.06442 0.276223,0.113559 0.421875,0.146485 C 17.700753,19.982777 17.850129,19.999811 18,20 c 0.149871,-1.89e-4 0.299247,-0.01722 0.445312,-0.05078 0.145653,-0.03293 0.28716,-0.08206 0.421875,-0.146485 0.13482,-0.065 0.261919,-0.144926 0.378907,-0.238281 0.117764,-0.0938 0.22456,-0.200595 0.318359,-0.318359 0.09335,-0.116988 0.173282,-0.244087 0.238281,-0.378907 0.06442,-0.134715 0.113559,-0.276222 0.146485,-0.421875 C 19.982777,18.299247 19.999811,18.149871 20,18 V 6 c 3.47e-4,-0.055395 -0.0016,-0.1107826 -0.0059,-0.1660156 -0.0049,-0.05496 -0.01206,-0.1096952 -0.02148,-0.1640625 -0.0089,-0.053815 -0.01996,-0.1072464 -0.0332,-0.1601563 -0.01344,-0.053356 -0.02908,-0.1061364 -0.04687,-0.1582031 -0.01804,-0.052246 -0.03824,-0.1037238 -0.06055,-0.1542969 -0.02203,-0.050452 -0.04614,-0.099974 -0.07227,-0.1484375 -0.02665,-0.048698 -0.05533,-0.096266 -0.08594,-0.1425781 -0.03003,-0.046221 -0.06196,-0.091182 -0.0957,-0.1347656 -0.03403,-0.043788 -0.06987,-0.086143 -0.107422,-0.1269532 -0.03683,-0.039961 -0.07527,-0.078405 -0.115234,-0.1152343 -0.04081,-0.037552 -0.08317,-0.073391 -0.126953,-0.1074219 -0.04358,-0.033744 -0.08854,-0.065673 -0.134766,-0.095703 -0.04631,-0.030612 -0.09388,-0.059283 -0.142578,-0.085937 -0.04846,-0.026121 -0.09799,-0.050231 -0.148438,-0.072266 -0.05057,-0.022305 -0.10205,-0.042505 -0.154297,-0.060547 -0.05207,-0.017794 -0.104846,-0.033433 -0.158203,-0.046875 -0.05291,-0.013247 -0.10634,-0.024324 -0.160156,-0.033203 -0.05437,-0.00942 -0.109102,-0.016589 -0.164062,-0.021484 C 18.110783,4.0016079 18.055395,3.9996531 18,4 Z"
       style="stroke-width:2;stroke-linecap:round;stroke-linejoin:round;stroke:none;fill:url(#pattern4);fill-opacity:1"
       id="path3" />
  </g>
</svg>
