<?xml version="1.0" encoding="UTF-8" standalone="no"?>
<!-- Created with Inkscape (http://www.inkscape.org/) -->

<svg
   width="24"
   height="24"
   viewBox="0 0 24 24"
   version="1.1"
   id="svg1"
   xmlns:xlink="http://www.w3.org/1999/xlink"
   xmlns="http://www.w3.org/2000/svg"
   xmlns:svg="http://www.w3.org/2000/svg">
  <defs
     id="defs1">
    <pattern
       xlink:href="#Strips1_1"
       preserveAspectRatio="xMidYMid"
       id="pattern3"
       patternTransform="rotate(45)"
       x="1.5"
       y="0" />
    <pattern
       patternUnits="userSpaceOnUse"
       width="2"
       height="10"
       patternTransform="translate(0,0) scale(2,2)"
       preserveAspectRatio="xMidYMid"
       id="Strips1_1"
       style="fill:#000000">
      <rect
         style="stroke:none"
         x="0"
         y="-0.5"
         width="1"
         height="11"
         id="rect134" />
    </pattern>
  </defs>
  <g
     id="layer1">
    <rect
       style="fill:none;stroke:#000000;stroke-width:2;stroke-linecap:round;stroke-linejoin:miter;stroke-dasharray:none"
       id="rect23"
       width="18"
       height="18"
       x="3"
       y="3"
       ry="3.0999999" />
    <path
       d="M 6,4 C 5.8501299,4.0001887 5.7007523,4.017223 5.5546875,4.0507812 5.4090361,4.0837066 5.2675269,4.1328417 5.1328125,4.1972656 4.9979934,4.2622642 4.8708936,4.3421929 4.7539062,4.4355469 4.6361431,4.5293451 4.5293451,4.6361431 4.4355469,4.7539062 4.3421929,4.8708936 4.2622642,4.9979934 4.1972656,5.1328125 4.1328417,5.2675269 4.0837066,5.4090361 4.0507812,5.5546875 4.017223,5.7007523 4.0001887,5.8501299 4,6 v 12 c 1.887e-4,0.149871 0.017223,0.299247 0.050781,0.445312 0.032926,0.145653 0.08206,0.28716 0.1464844,0.421875 0.064999,0.13482 0.1449268,0.261919 0.2382813,0.378907 0.093799,0.117764 0.2005954,0.22456 0.3183593,0.318359 0.1169881,0.09335 0.2440864,0.173282 0.3789063,0.238281 0.1347152,0.06442 0.2762227,0.113559 0.421875,0.146485 C 5.7007532,19.982777 5.850129,19.999811 6,20 c 0.149871,-1.89e-4 0.2992468,-0.01722 0.4453125,-0.05078 0.1456523,-0.03293 0.2871598,-0.08206 0.421875,-0.146485 0.1348199,-0.065 0.2619182,-0.144926 0.3789062,-0.238281 0.117764,-0.0938 0.2245607,-0.200595 0.3183594,-0.318359 0.093355,-0.116988 0.1732823,-0.244087 0.2382813,-0.378907 0.064424,-0.134715 0.1135588,-0.276222 0.1464843,-0.421875 C 7.9827772,18.299247 7.9998113,18.149871 8,18 V 6 C 8.0003469,5.9446046 7.9983921,5.8892174 7.9941406,5.8339844 7.9892454,5.7790244 7.9820777,5.7242892 7.9726562,5.6699219 7.9637771,5.6161065 7.9527,5.5626755 7.9394531,5.5097656 7.9260111,5.4564093 7.9103726,5.4036292 7.8925781,5.3515625 7.8745368,5.2993161 7.8543368,5.2478387 7.8320312,5.1972656 7.8099962,5.1468133 7.7858867,5.0972912 7.7597656,5.0488281 7.7331112,5.0001304 7.7044401,4.9525624 7.6738281,4.90625 7.643798,4.8600289 7.6118692,4.8150679 7.578125,4.7714844 7.5440936,4.727696 7.5082548,4.685341 7.4707031,4.6445312 7.4338735,4.6045705 7.3954295,4.5661265 7.3554687,4.5292969 7.314659,4.4917452 7.272304,4.4559064 7.2285156,4.421875 7.1849321,4.3881308 7.1399711,4.356202 7.09375,4.3261719 7.0474376,4.2955599 6.9998696,4.2668888 6.9511719,4.2402344 6.9027088,4.2141133 6.8531867,4.1900038 6.8027344,4.1679687 6.7521613,4.1456632 6.7006839,4.1254632 6.6484375,4.1074219 6.5963708,4.0896274 6.5435907,4.0739889 6.4902344,4.0605469 6.4373245,4.0473 6.3838935,4.0362229 6.3300781,4.0273437 6.2757108,4.0179223 6.2209756,4.0107546 6.1660156,4.0058594 6.1107826,4.0016079 6.0553954,3.9996531 6,4 Z"
       style="fill:url(#pattern3);stroke-width:2;stroke-linecap:round;stroke-linejoin:round;fill-opacity:1"
       id="path2" />
  </g>
</svg>
