<?xml version="1.0" encoding="UTF-8" standalone="no"?>
<!-- Created with Inkscape (http://www.inkscape.org/) -->

<svg
   width="24"
   height="24"
   viewBox="0 0 24 24"
   version="1.1"
   id="svg1"
   xmlns:xlink="http://www.w3.org/1999/xlink"
   xmlns="http://www.w3.org/2000/svg"
   xmlns:svg="http://www.w3.org/2000/svg">
  <defs
     id="defs1">
    <pattern
       xlink:href="#Strips1_1"
       preserveAspectRatio="xMidYMid"
       id="pattern5"
       patternTransform="rotate(45)"
       x="1.5"
       y="0" />
    <pattern
       patternUnits="userSpaceOnUse"
       width="2"
       height="10"
       patternTransform="translate(0,0) scale(2,2)"
       preserveAspectRatio="xMidYMid"
       id="Strips1_1"
       style="fill:#000000">
      <rect
         style="stroke:none"
         x="0"
         y="-0.5"
         width="1"
         height="11"
         id="rect134" />
    </pattern>
  </defs>
  <g
     id="layer1">
    <rect
       style="fill:none;stroke:#000000;stroke-width:2;stroke-linecap:round;stroke-linejoin:miter;stroke-dasharray:none"
       id="rect23"
       width="18"
       height="18"
       x="3"
       y="3"
       ry="3.0999999" />
    <path
       d="M 6,4 C 5.8501299,4.0001887 5.7007523,4.017223 5.5546875,4.0507812 5.4090361,4.0837066 5.2675269,4.1328417 5.1328125,4.1972656 4.9979934,4.2622642 4.8708936,4.3421929 4.7539062,4.4355469 4.6361431,4.5293451 4.5293451,4.6361431 4.4355469,4.7539062 4.3421929,4.8708936 4.2622642,4.9979934 4.1972656,5.1328125 4.1328417,5.2675269 4.0837066,5.4090361 4.0507812,5.5546875 4.017223,5.7007523 4.0001887,5.8501299 4,6 c 1.887e-4,0.1498701 0.017223,0.2992477 0.050781,0.4453125 0.032925,0.1456514 0.08206,0.2871606 0.1464844,0.421875 0.064999,0.1348191 0.1449273,0.2619189 0.2382813,0.3789062 0.093798,0.1177632 0.2005962,0.2245612 0.3183593,0.3183594 0.1169874,0.093354 0.2440872,0.1732827 0.3789063,0.2382813 0.1347144,0.064424 0.2762236,0.113559 0.421875,0.1464843 C 5.7007523,7.982777 5.8501299,7.9998113 6,8 h 12 c 0.149871,-1.887e-4 0.299247,-0.017223 0.445312,-0.050781 0.145653,-0.032926 0.28716,-0.08206 0.421875,-0.1464843 0.13482,-0.064999 0.261919,-0.1449268 0.378907,-0.2382813 0.117764,-0.093799 0.22456,-0.2005954 0.318359,-0.3183594 0.09335,-0.116988 0.173282,-0.2440863 0.238281,-0.3789062 0.06442,-0.1347152 0.113559,-0.2762227 0.146485,-0.421875 C 19.982777,6.2992468 19.999811,6.149871 20,6 c 3.47e-4,-0.055396 -0.0016,-0.1107822 -0.0059,-0.1660156 -0.0049,-0.05496 -0.01206,-0.1096949 -0.02148,-0.1640625 -0.0089,-0.053816 -0.01996,-0.1072461 -0.0332,-0.1601563 -0.01344,-0.053357 -0.02908,-0.1061361 -0.04687,-0.1582031 -0.01804,-0.052247 -0.03824,-0.1037235 -0.06055,-0.1542969 -0.02203,-0.050453 -0.04614,-0.099974 -0.07227,-0.1484375 -0.02665,-0.048698 -0.05533,-0.096265 -0.08594,-0.1425781 -0.03003,-0.046221 -0.06196,-0.091182 -0.0957,-0.1347656 -0.03403,-0.043789 -0.06987,-0.086143 -0.107422,-0.1269532 -0.03683,-0.039961 -0.07527,-0.078405 -0.115234,-0.1152343 -0.04081,-0.037552 -0.08317,-0.07339 -0.126953,-0.1074219 -0.04358,-0.033744 -0.08854,-0.065673 -0.134766,-0.095703 -0.04631,-0.030612 -0.09388,-0.059283 -0.142578,-0.085937 -0.04846,-0.026121 -0.09799,-0.050231 -0.148438,-0.072266 -0.05057,-0.022306 -0.10205,-0.042505 -0.154297,-0.060547 C 18.59637,4.0896273 18.543591,4.073989 18.490234,4.0605469 18.437324,4.0473 18.383894,4.0362229 18.330078,4.0273437 18.275711,4.0179222 18.220976,4.0107546 18.166016,4.0058594 18.110782,4.0016079 18.055396,3.9996531 18,4 Z"
       style="fill:url(#pattern5);stroke-width:2;stroke-linecap:round;stroke-linejoin:round;fill-opacity:1"
       id="path2" />
  </g>
</svg>
