<?xml version="1.0" encoding="UTF-8" standalone="no"?>
<!-- Created with Inkscape (http://www.inkscape.org/) -->

<svg
   width="24"
   height="24"
   viewBox="0 0 24 24"
   version="1.1"
   id="svg1"
   xmlns:xlink="http://www.w3.org/1999/xlink"
   xmlns="http://www.w3.org/2000/svg"
   xmlns:svg="http://www.w3.org/2000/svg">
  <defs
     id="defs1">
    <pattern
       xlink:href="#Strips1_1"
       preserveAspectRatio="xMidYMid"
       id="pattern3"
       patternTransform="rotate(45)"
       x="1.5"
       y="0" />
    <pattern
       patternUnits="userSpaceOnUse"
       width="2"
       height="10"
       patternTransform="translate(0,0) scale(2,2)"
       preserveAspectRatio="xMidYMid"
       id="Strips1_1"
       style="fill:#000000">
      <rect
         style="stroke:none"
         x="0"
         y="-0.5"
         width="1"
         height="11"
         id="rect134" />
    </pattern>
  </defs>
  <g
     id="layer1">
    <rect
       style="fill:none;stroke:#000000;stroke-width:2;stroke-linecap:round;stroke-linejoin:miter;stroke-dasharray:none"
       id="rect23"
       width="18"
       height="18"
       x="3"
       y="3"
       ry="3.0999999" />
    <path
       d="m 6,16 c -0.1498701,1.89e-4 -0.2992477,0.01722 -0.4453125,0.05078 -0.1456514,0.03293 -0.2871606,0.08206 -0.421875,0.146485 -0.1348191,0.065 -0.2619189,0.144927 -0.3789063,0.238281 -0.1177631,0.0938 -0.2245611,0.200596 -0.3183593,0.318359 -0.093354,0.116988 -0.1732827,0.244087 -0.2382813,0.378906 -0.064424,0.134715 -0.113559,0.276224 -0.1464844,0.421875 C 4.017223,17.700752 4.0001887,17.85013 4,18 c 1.887e-4,0.14987 0.017223,0.299248 0.050781,0.445312 0.032925,0.145652 0.08206,0.287161 0.1464844,0.421875 0.064999,0.13482 0.1449273,0.261919 0.2382813,0.378907 0.093798,0.117763 0.2005962,0.224561 0.3183593,0.318359 0.1169874,0.09335 0.2440872,0.173283 0.3789063,0.238281 0.1347144,0.06442 0.2762236,0.113559 0.421875,0.146485 C 5.7007523,19.982777 5.8501299,19.999811 6,20 h 12 c 0.149871,-1.89e-4 0.299247,-0.01722 0.445312,-0.05078 0.145653,-0.03293 0.28716,-0.08206 0.421875,-0.146485 0.13482,-0.065 0.261919,-0.144926 0.378907,-0.238281 0.117764,-0.0938 0.22456,-0.200595 0.318359,-0.318359 0.09335,-0.116988 0.173282,-0.244087 0.238281,-0.378907 0.06442,-0.134715 0.113559,-0.276222 0.146485,-0.421875 C 19.982777,18.299247 19.999811,18.149871 20,18 c 3.47e-4,-0.0554 -0.0016,-0.110782 -0.0059,-0.166016 -0.0049,-0.05496 -0.01206,-0.109695 -0.02148,-0.164062 -0.0089,-0.05382 -0.01996,-0.107246 -0.0332,-0.160156 -0.01344,-0.05336 -0.02908,-0.106136 -0.04687,-0.158204 -0.01804,-0.05225 -0.03824,-0.103723 -0.06055,-0.154296 -0.02203,-0.05045 -0.04614,-0.09998 -0.07227,-0.148438 -0.02665,-0.0487 -0.05533,-0.09626 -0.08594,-0.142578 -0.03003,-0.04622 -0.06196,-0.09118 -0.0957,-0.134766 -0.03403,-0.04379 -0.06987,-0.08614 -0.107422,-0.126953 -0.03683,-0.03996 -0.07527,-0.0784 -0.115234,-0.115234 -0.04081,-0.03755 -0.08317,-0.07339 -0.126953,-0.107422 -0.04358,-0.03374 -0.08854,-0.06567 -0.134766,-0.0957 -0.04631,-0.03061 -0.09388,-0.05928 -0.142578,-0.08594 -0.04846,-0.02612 -0.09799,-0.05023 -0.148438,-0.07227 -0.05057,-0.02231 -0.10205,-0.04251 -0.154297,-0.06055 -0.05207,-0.01779 -0.104846,-0.03343 -0.158203,-0.04687 -0.05291,-0.01325 -0.10634,-0.02432 -0.160156,-0.0332 -0.05437,-0.0094 -0.109102,-0.01659 -0.164062,-0.02148 C 18.110782,16.001608 18.055396,15.999653 18,16 Z"
       style="stroke-width:2;stroke-linecap:round;stroke-linejoin:round;fill:url(#pattern3);fill-opacity:1"
       id="path2" />
  </g>
</svg>
