<?xml version="1.0" encoding="UTF-8" standalone="no"?>
<!-- Created with Inkscape (http://www.inkscape.org/) -->

<svg
   width="24"
   height="24"
   viewBox="0 0 24 24"
   version="1.1"
   id="svg1"
   xmlns="http://www.w3.org/2000/svg"
   xmlns:svg="http://www.w3.org/2000/svg">
  <defs
     id="defs1" />
  <g
     id="layer1">
    <rect
       style="fill:none;stroke:#000000;stroke-width:2;stroke-linecap:round;stroke-linejoin:miter;stroke-dasharray:none"
       id="rect23"
       width="18"
       height="18"
       x="3"
       y="3"
       ry="3.0999999" />
    <path
       d="M 6,3 V 4 6 H 4 3 V 8 H 4 6 C 6.1046702,7.9997269 6.2091587,7.9912372 6.3125,7.9746094 6.4157947,7.958521 6.5176702,7.9343582 6.6171875,7.9023437 6.717227,7.8696982 6.8145351,7.8292076 6.9082031,7.78125 7.0015556,7.7336567 7.0910244,7.6787999 7.1757812,7.6171875 7.2603941,7.5558104 7.3400659,7.4878934 7.4140625,7.4140625 7.4878934,7.3400659 7.5558104,7.2603941 7.6171875,7.1757812 7.6787999,7.0910244 7.7336567,7.0015556 7.78125,6.9082031 7.8292076,6.8145351 7.8696982,6.717227 7.9023437,6.6171875 7.9343582,6.5176702 7.958521,6.4157947 7.9746094,6.3125 7.9912372,6.2091587 7.9997269,6.1046702 8,6 V 4 3 Z"
       style="stroke-linecap:square"
       id="path5" />
    <path
       d="m 10,3 v 1 4 2 H 8 4 3 v 2 h 1 6 c 0.149871,-1.89e-4 0.299247,-0.01722 0.445313,-0.05078 0.145651,-0.03293 0.28716,-0.08206 0.421875,-0.146485 0.134819,-0.065 0.261918,-0.144927 0.378906,-0.238281 0.117763,-0.0938 0.224561,-0.200596 0.318359,-0.318359 0.09335,-0.116988 0.173283,-0.244087 0.238281,-0.378906 0.06442,-0.134715 0.113559,-0.276224 0.146485,-0.421875 C 11.982777,10.299247 11.999811,10.149871 12,10 V 4 3 Z"
       style="stroke-linecap:square"
       id="path6" />
    <path
       d="m 14,3 v 1 8 2 H 12 4 3 v 2 h 1 10 c 0.174771,-7.4e-5 0.348781,-0.02306 0.517578,-0.06836 0.168819,-0.04505 0.331008,-0.112025 0.482422,-0.199219 0.151343,-0.08756 0.290552,-0.194597 0.414063,-0.318359 0.123762,-0.123511 0.230795,-0.26272 0.318359,-0.414063 0.08719,-0.151414 0.154171,-0.313603 0.199219,-0.482422 C 15.976944,14.348781 15.999926,14.174771 16,14 V 4 3 Z"
       style="stroke-linecap:square"
       id="path7" />
  </g>
</svg>
