<?xml version="1.0" encoding="UTF-8" standalone="no"?>
<!-- Created with Inkscape (http://www.inkscape.org/) -->

<svg
   width="24"
   height="24"
   viewBox="0 0 24 24"
   version="1.1"
   id="svg1"
   xmlns:xlink="http://www.w3.org/1999/xlink"
   xmlns="http://www.w3.org/2000/svg"
   xmlns:svg="http://www.w3.org/2000/svg">
  <defs
     id="defs1">
    <pattern
       xlink:href="#Strips1_1"
       preserveAspectRatio="xMidYMid"
       id="pattern37"
       patternTransform="rotate(45)"
       x="1.5"
       y="0" />
    <pattern
       patternUnits="userSpaceOnUse"
       width="2"
       height="10"
       patternTransform="translate(0,0) scale(2,2)"
       preserveAspectRatio="xMidYMid"
       id="Strips1_1"
       style="fill:#000000">
      <rect
         style="stroke:none"
         x="0"
         y="-0.5"
         width="1"
         height="11"
         id="rect134" />
    </pattern>
  </defs>
  <g
     id="layer1">
    <rect
       style="fill:none;stroke:#000000;stroke-width:2;stroke-linecap:round;stroke-linejoin:miter;stroke-dasharray:none"
       id="rect23"
       width="18"
       height="18"
       x="3"
       y="3"
       ry="3.0999999" />
    <path
       d="M 6,4 C 5.8252317,4.0000741 5.6512166,4.0230572 5.4824219,4.0683594 5.3136062,4.1134067 5.1514117,4.1803858 5,4.2675781 4.8486593,4.3551403 4.7094462,4.4621768 4.5859375,4.5859375 4.4621768,4.7094462 4.3551403,4.8486593 4.2675781,5 4.1803858,5.1514117 4.1134067,5.3136062 4.0683594,5.4824219 4.0230572,5.6512166 4.0000741,5.8252317 4,6 v 12 c 7.41e-5,0.17477 0.023057,0.348781 0.068359,0.517578 0.045048,0.168818 0.1120253,0.331008 0.1992187,0.482422 0.087563,0.151342 0.1945972,0.290552 0.3183594,0.414062 0.1235102,0.123763 0.26272,0.230797 0.4140625,0.31836 0.1514135,0.08719 0.3136041,0.154171 0.4824219,0.199219 C 5.6512187,19.976943 5.8252296,19.999926 6,20 h 12 c 0.174771,-7.4e-5 0.34878,-0.02306 0.517578,-0.06836 0.168819,-0.04505 0.331008,-0.112025 0.482422,-0.199219 0.151343,-0.08756 0.290552,-0.194597 0.414062,-0.31836 0.123763,-0.12351 0.230796,-0.262719 0.31836,-0.414062 0.08719,-0.151414 0.15417,-0.313603 0.199219,-0.482422 C 19.976944,18.34878 19.999926,18.174771 20,18 c -6.8e-5,-0.06522 -0.0033,-0.130407 -0.0098,-0.195313 -0.0065,-0.06555 -0.01632,-0.13073 -0.0293,-0.195312 -0.01253,-0.06388 -0.02818,-0.127103 -0.04687,-0.189453 -0.01907,-0.0629 -0.04124,-0.124827 -0.06641,-0.185547 -0.02506,-0.06058 -0.05309,-0.119902 -0.08398,-0.177734 -0.03109,-0.05762 -0.06498,-0.113676 -0.101563,-0.167969 -0.03581,-0.05458 -0.07426,-0.107381 -0.115234,-0.158203 -0.04188,-0.05032 -0.0862,-0.09856 -0.132813,-0.144532 -0.04597,-0.04661 -0.09421,-0.09093 -0.144531,-0.132812 -0.05082,-0.04097 -0.10362,-0.07943 -0.158203,-0.115234 -0.05429,-0.03658 -0.110351,-0.07048 -0.167969,-0.101563 -0.05783,-0.03089 -0.117149,-0.05892 -0.177734,-0.08398 -0.06072,-0.02517 -0.122644,-0.04733 -0.185547,-0.06641 -0.06235,-0.0187 -0.125577,-0.03434 -0.189453,-0.04687 -0.06458,-0.01298 -0.129766,-0.02275 -0.195313,-0.0293 C 18.130407,16.003328 18.065224,16.000068 18,16 H 8 V 8 h 10 c 0.174766,-7.41e-5 0.348785,-0.023058 0.517578,-0.068359 C 18.686392,7.8865938 18.84859,7.8196132 19,7.7324219 19.151339,7.6448608 19.290555,7.5378218 19.414062,7.4140625 19.537822,7.2905552 19.644861,7.1513389 19.732422,7 19.819613,6.8485901 19.886594,6.6863918 19.931641,6.5175781 19.976942,6.3487854 19.999926,6.1747662 20,6 c -6.8e-5,-0.065222 -0.0033,-0.1304086 -0.0098,-0.1953125 -0.0065,-0.065545 -0.01632,-0.1307326 -0.0293,-0.1953125 -0.01253,-0.063874 -0.02818,-0.1271045 -0.04687,-0.1894531 -0.01907,-0.062901 -0.04124,-0.1248287 -0.06641,-0.1855469 -0.02506,-0.060584 -0.05309,-0.1199039 -0.08398,-0.1777344 -0.03108,-0.057616 -0.06498,-0.1136769 -0.101563,-0.1679687 -0.0358,-0.054582 -0.07427,-0.1073826 -0.115234,-0.1582032 -0.04188,-0.05032 -0.0862,-0.098558 -0.132813,-0.1445312 -0.04597,-0.046608 -0.09421,-0.090935 -0.144531,-0.1328125 -0.05082,-0.040969 -0.103621,-0.079429 -0.158203,-0.1152344 -0.05429,-0.036582 -0.110352,-0.070479 -0.167969,-0.1015625 -0.05783,-0.03089 -0.11715,-0.058921 -0.177734,-0.083984 -0.06072,-0.02517 -0.122646,-0.047334 -0.185547,-0.066406 -0.06235,-0.018698 -0.125579,-0.034343 -0.189453,-0.046875 -0.06458,-0.012976 -0.129768,-0.022754 -0.195313,-0.029297 C 18.130409,4.0033278 18.065222,4.0000685 18,4 Z"
       style="fill:url(#pattern37);stroke-width:2;stroke-linecap:round;stroke-linejoin:round;fill-opacity:1"
       id="path36" />
  </g>
</svg>
