<?xml version="1.0" encoding="UTF-8" standalone="no"?>
<!-- Created with Inkscape (http://www.inkscape.org/) -->

<svg
   width="24"
   height="24"
   viewBox="0 0 24 24"
   version="1.1"
   id="svg1"
   xmlns:xlink="http://www.w3.org/1999/xlink"
   xmlns="http://www.w3.org/2000/svg"
   xmlns:svg="http://www.w3.org/2000/svg">
  <defs
     id="defs1">
    <pattern
       xlink:href="#pattern7"
       preserveAspectRatio="xMidYMid"
       id="pattern4"
       patternTransform="rotate(45,4.049175e-7,2.3128807e-6)" />
    <pattern
       xlink:href="#pattern3"
       preserveAspectRatio="xMidYMid"
       id="pattern7"
       patternTransform="rotate(45,13.000001,31.384778)" />
    <pattern
       xlink:href="#Strips1_1"
       preserveAspectRatio="xMidYMid"
       id="pattern3"
       patternTransform="rotate(45,8.4457488e-7,1.376269e-6)"
       x="1.5"
       y="0" />
    <pattern
       patternUnits="userSpaceOnUse"
       width="2"
       height="10"
       patternTransform="translate(0,0) scale(2,2)"
       preserveAspectRatio="xMidYMid"
       id="Strips1_1"
       style="fill:#000000">
      <rect
         style="stroke:none"
         x="0"
         y="-0.5"
         width="1"
         height="11"
         id="rect134" />
    </pattern>
  </defs>
  <g
     id="layer1">
    <rect
       style="fill:none;stroke:#000000;stroke-width:2;stroke-linecap:round;stroke-linejoin:miter;stroke-dasharray:none"
       id="rect23"
       width="18"
       height="18"
       x="3"
       y="3"
       ry="3.0999999" />
    <path
       d="M 4,4 V 20 H 20 V 4 Z m 3,6 c 0.02556,0 0.05015,0.0039 0.07422,0.01367 0.02407,0.0098 0.04682,0.02534 0.06641,0.04492 l 1.800781,1.800781 c 0.01959,0.01959 0.03513,0.04234 0.04492,0.06641 C 8.996122,11.949849 9,11.974438 9,12 c 0,0.02556 -0.0039,0.05015 -0.01367,0.07422 -0.0098,0.02407 -0.02534,0.04682 -0.04492,0.06641 l -1.800781,1.800781 c -0.01959,0.01959 -0.04234,0.03513 -0.06641,0.04492 C 7.050151,13.996122 7.025562,14 7,14 6.97444,14 6.94985,13.9961 6.92578,13.98633 6.90171,13.97653 6.87896,13.961 6.85937,13.94141 L 5.058589,12.140629 c -0.01959,-0.01959 -0.03513,-0.04234 -0.04492,-0.06641 C 5.003878,12.050151 5,12.025562 5,12 5,11.97444 5.0039,11.94985 5.01367,11.92578 5.02347,11.90171 5.03901,11.87896 5.05859,11.85937 l 1.800781,-1.800781 c 0.01959,-0.01959 0.04234,-0.03513 0.06641,-0.04492 C 6.949849,10.003878 6.974438,10 7,10 Z m 4,0 h 2 c 0.06925,0 0.135957,0.0063 0.201172,0.01953 0.06522,0.01328 0.129594,0.03336 0.189453,0.05859 0.05986,0.02523 0.116738,0.05593 0.169922,0.0918 0.05318,0.03587 0.101297,0.07786 0.146484,0.123047 0.04519,0.04519 0.08718,0.0933 0.123047,0.146484 0.03587,0.05318 0.06656,0.110063 0.0918,0.169922 0.02523,0.05986 0.04532,0.124238 0.05859,0.189453 C 13.993746,10.864043 14,10.93075 14,11 v 2 c 0,0.06925 -0.0063,0.135957 -0.01953,0.201172 -0.01328,0.06522 -0.03336,0.129594 -0.05859,0.189453 -0.02523,0.05986 -0.05593,0.116738 -0.0918,0.169922 -0.03587,0.05318 -0.07786,0.101297 -0.123047,0.146484 -0.04519,0.04519 -0.0933,0.08718 -0.146484,0.123047 -0.05318,0.03587 -0.110063,0.06656 -0.169922,0.0918 -0.05986,0.02523 -0.124238,0.04532 -0.189453,0.05859 C 13.135957,13.993746 13.06925,14 13,14 h -2 c -0.06925,0 -0.135957,-0.0063 -0.201172,-0.01953 -0.06522,-0.01328 -0.129594,-0.03336 -0.189453,-0.05859 -0.05986,-0.02523 -0.116738,-0.05593 -0.169922,-0.0918 -0.05318,-0.03587 -0.101297,-0.07786 -0.146484,-0.123047 -0.04519,-0.04519 -0.08718,-0.0933 -0.123047,-0.146484 -0.03587,-0.05318 -0.06656,-0.110063 -0.0918,-0.169922 -0.02523,-0.05986 -0.04532,-0.124238 -0.05859,-0.189453 C 10.006254,13.135957 10,13.06925 10,13 v -2 c 0,-0.06925 0.0063,-0.135957 0.01953,-0.201172 0.01328,-0.06522 0.03336,-0.129594 0.05859,-0.189453 0.02523,-0.05986 0.05593,-0.116738 0.0918,-0.169922 0.03587,-0.05318 0.07786,-0.101297 0.123047,-0.146484 0.04519,-0.04519 0.0933,-0.08718 0.146484,-0.123047 0.05318,-0.03587 0.110063,-0.06656 0.169922,-0.0918 0.05986,-0.02523 0.124238,-0.04532 0.189453,-0.05859 C 10.864043,10.006254 10.93075,10 11,10 Z m 6,0 a 2,2 0 0 1 0.195312,0.0098 2,2 0 0 1 0.195313,0.0293 2,2 0 0 1 0.189453,0.04687 2,2 0 0 1 0.185547,0.06641 2,2 0 0 1 0.177734,0.08398 2,2 0 0 1 0.167969,0.101563 2,2 0 0 1 0.158203,0.115234 2,2 0 0 1 0.144531,0.132812 2,2 0 0 1 0.132813,0.144532 2,2 0 0 1 0.115234,0.158203 2,2 0 0 1 0.101563,0.167969 2,2 0 0 1 0.08398,0.177734 2,2 0 0 1 0.06641,0.185547 2,2 0 0 1 0.04687,0.189453 2,2 0 0 1 0.0293,0.195312 A 2,2 0 0 1 19,12 2,2 0 0 1 18.931641,12.517578 2,2 0 0 1 18.732422,13 2,2 0 0 1 18.414062,13.414062 2,2 0 0 1 18,13.732422 2,2 0 0 1 17.517578,13.931641 2,2 0 0 1 17,14 2,2 0 0 1 16.482422,13.931641 2,2 0 0 1 16,13.732422 2,2 0 0 1 15.585937,13.414062 2,2 0 0 1 15.267578,13 2,2 0 0 1 15.068359,12.517578 2,2 0 0 1 15,12 2,2 0 0 1 15.068359,11.482422 2,2 0 0 1 15.267578,11 2,2 0 0 1 15.585937,10.585937 2,2 0 0 1 16,10.267578 2,2 0 0 1 16.482422,10.068359 2,2 0 0 1 17,10 Z"
       style="fill:url(#pattern4);stroke-width:2;stroke-linecap:square"
       id="path4" />
  </g>
</svg>
