<?xml version="1.0" encoding="UTF-8" standalone="no"?>
<!-- Created with Inkscape (http://www.inkscape.org/) -->

<svg
   width="400"
   height="400"
   viewBox="0 0 400 400"
   version="1.1"
   id="svg1"
   sodipodi:docname="qr.svg"
   inkscape:version="1.3 (0e150ed6c4, 2023-07-21)"
   xmlns:inkscape="http://www.inkscape.org/namespaces/inkscape"
   xmlns:sodipodi="http://sodipodi.sourceforge.net/DTD/sodipodi-0.dtd"
   xmlns="http://www.w3.org/2000/svg"
   xmlns:svg="http://www.w3.org/2000/svg">
   <sodipodi:namedview
      id="namedview1"
      pagecolor="#505050"
      bordercolor="#ffffff"
      borderopacity="1"
      inkscape:showpageshadow="0"
      inkscape:pageopacity="0"
      inkscape:pagecheckerboard="1"
      inkscape:deskcolor="#505050"
      inkscape:zoom="2.9575"
      inkscape:cx="199.83094"
      inkscape:cy="200"
      inkscape:window-width="2560"
      inkscape:window-height="1387"
      inkscape:window-x="2560"
      inkscape:window-y="24"
      inkscape:window-maximized="1"
      inkscape:current-layer="svg1" />
   <defs
      id="defs1">
      <filter
         id="selectable_hidder_filter"
         width="1"
         height="1"
         x="0"
         y="0"
         style="color-interpolation-filters:sRGB;">
         <feComposite
            id="boolops_hidder_primitive"
            result="composite1"
            operator="arithmetic"
            in2="SourceGraphic"
            in="BackgroundImage" />
      </filter>
      <filter
         id="mask-powermask-path-effect9_inverse"
         style="color-interpolation-filters:sRGB"
         height="100"
         width="100"
         x="-50"
         y="-50">
         <feColorMatrix
            id="mask-powermask-path-effect9_primitive1"
            values="1"
            type="saturate"
            result="fbSourceGraphic" />
         <feColorMatrix
            id="mask-powermask-path-effect9_primitive2"
            values="-1 0 0 0 1 0 -1 0 0 1 0 0 -1 0 1 0 0 0 1 0 "
            in="fbSourceGraphic" />
      </filter>
   </defs>
   <path
      id="path1"
      clip-path="none"
      style="fill:#ffffff;stroke:none;stroke-width:2.22222"
      d="M 0.88867188 0 C 0.39775237 -7.4014794e-17 0 0.39775237 0 0.88867188 L 0 61.333984 C -7.4014794e-17 61.824904 0.39775237 62.222656 0.88867188 62.222656 L 61.333984 62.222656 C 61.824904 62.222656 62.222656 61.824904 62.222656 61.333984 L 62.222656 0.88867188 C 62.222656 0.39775237 61.824904 0 61.333984 0 L 0.88867188 0 z M 72 0 C 71.50908 -7.4014794e-17 71.111328 0.39775237 71.111328 0.88867188 L 71.111328 16.888672 C 71.111328 17.379591 71.50908 17.777344 72 17.777344 L 88 17.777344 C 88.49092 17.777344 88.888672 18.175096 88.888672 18.666016 L 88.888672 25.777344 C 88.888672 26.268263 88.49092 26.666016 88 26.666016 L 72 26.666016 C 71.50908 26.666016 71.111328 27.063768 71.111328 27.554688 L 71.111328 61.333984 C 71.111328 61.824904 71.50908 62.222656 72 62.222656 L 79.111328 62.222656 L 80 62.222656 L 80 54.222656 C 80 53.731737 80.397752 53.333984 80.888672 53.333984 L 88.888672 53.333984 L 88.888672 45.333984 C 88.888672 44.843065 89.286424 44.445312 89.777344 44.445312 L 97.777344 44.445312 L 97.777344 27.554688 C 97.777344 27.063768 98.175096 26.666016 98.666016 26.666016 L 106.66602 26.666016 L 106.66602 0.88867188 C 106.66602 0.39775237 106.26826 0 105.77734 0 L 89.777344 0 C 89.286424 -7.4014794e-17 88.888672 0.39775237 88.888672 0.88867188 L 88.888672 8 C 88.888672 8.4909195 88.49092 8.8886719 88 8.8886719 L 80.888672 8.8886719 C 80.397752 8.8886719 80 8.4909195 80 8 L 80 0.88867188 C 80 0.39775237 79.602248 0 79.111328 0 L 72 0 z M 106.66602 26.666016 L 106.66602 34.666016 C 106.66602 35.156935 107.06377 35.554688 107.55469 35.554688 L 114.66602 35.554688 C 115.15694 35.554687 115.55469 35.954393 115.55469 36.445312 L 115.55469 44.445312 L 123.55469 44.445312 C 124.04561 44.445312 124.44531 44.843065 124.44531 45.333984 L 124.44531 71.111328 L 132.44531 71.111328 C 132.93623 71.111328 133.33398 70.713576 133.33398 70.222656 L 133.33398 35.554688 L 125.33398 35.554688 C 124.84306 35.554687 124.44531 35.156935 124.44531 34.666016 L 124.44531 27.554688 C 124.44531 27.063768 124.04561 26.666016 123.55469 26.666016 L 106.66602 26.666016 z M 133.33398 35.554688 L 141.33398 35.554688 C 141.8249 35.554687 142.22266 35.954393 142.22266 36.445312 L 142.22266 43.554688 C 142.22266 44.045607 142.62041 44.445312 143.11133 44.445312 L 150.22266 44.445312 C 150.71358 44.445312 151.11133 44.843065 151.11133 45.333984 L 151.11133 53.333984 L 159.11133 53.333984 C 159.60225 53.333984 160 53.731737 160 54.222656 L 160 61.333984 C 160 61.824904 160.39775 62.222656 160.88867 62.222656 L 168.88867 62.222656 L 168.88867 45.333984 C 168.88867 44.843065 169.28642 44.445312 169.77734 44.445312 L 176.88867 44.445312 C 177.37959 44.445312 177.77734 44.843065 177.77734 45.333984 L 177.77734 61.333984 C 177.77734 61.824904 177.37959 62.222656 176.88867 62.222656 L 168.88867 62.222656 L 168.88867 70.222656 C 168.88867 70.713576 169.28642 71.111328 169.77734 71.111328 L 176.88867 71.111328 C 177.37959 71.111328 177.77734 71.50908 177.77734 72 L 177.77734 88 C 177.77734 88.49092 177.37959 88.888672 176.88867 88.888672 L 168.88867 88.888672 L 168.88867 96.888672 C 168.88867 97.379591 169.28642 97.777344 169.77734 97.777344 L 176.88867 97.777344 C 177.37959 97.777344 177.77734 98.175096 177.77734 98.666016 L 177.77734 123.55469 C 177.77734 124.04561 178.1751 124.44531 178.66602 124.44531 L 185.77734 124.44531 C 186.26826 124.44531 186.66602 124.84306 186.66602 125.33398 L 186.66602 127.50195 A 73.999999 73.999999 0 0 1 200 126 A 73.999999 73.999999 0 0 1 213.33398 127.25977 L 213.33398 124.44531 L 196.44531 124.44531 C 195.9544 124.44531 195.55469 124.04561 195.55469 123.55469 L 195.55469 116.44531 C 195.55469 115.95439 195.9544 115.55469 196.44531 115.55469 L 203.55469 115.55469 C 204.0456 115.55469 204.44531 115.15694 204.44531 114.66602 L 204.44531 107.55469 C 204.44531 107.06377 204.84307 106.66602 205.33398 106.66602 L 213.33398 106.66602 L 213.33398 97.777344 L 205.33398 97.777344 C 204.84307 97.777344 204.44531 97.379591 204.44531 96.888672 L 204.44531 88.888672 L 196.44531 88.888672 C 195.9544 88.888672 195.55469 88.49092 195.55469 88 L 195.55469 80.888672 C 195.55469 80.397752 195.9544 80 196.44531 80 L 203.55469 80 C 204.0456 80 204.44531 80.397752 204.44531 80.888672 L 204.44531 88.888672 L 213.33398 88.888672 L 213.33398 80.888672 C 213.33398 80.397752 213.73175 80 214.22266 80 L 222.22266 80 L 222.22266 72 C 222.22266 71.50908 222.62042 71.111328 223.11133 71.111328 L 230.22266 71.111328 C 230.71357 71.111328 231.11133 70.713576 231.11133 70.222656 L 231.11133 62.222656 L 223.11133 62.222656 C 222.62042 62.222656 222.22266 61.824904 222.22266 61.333984 L 222.22266 36.445312 C 222.22266 35.954393 222.62042 35.554688 223.11133 35.554688 L 231.11133 35.554688 L 231.11133 27.554688 C 231.11133 27.063768 230.71357 26.666016 230.22266 26.666016 L 223.11133 26.666016 C 222.62042 26.666016 222.22266 26.268263 222.22266 25.777344 L 222.22266 17.777344 L 214.22266 17.777344 C 213.73175 17.777344 213.33398 18.175096 213.33398 18.666016 L 213.33398 34.666016 C 213.33398 35.156935 212.93623 35.554688 212.44531 35.554688 L 196.44531 35.554688 C 195.9544 35.554687 195.55469 35.156935 195.55469 34.666016 L 195.55469 26.666016 L 187.55469 26.666016 C 187.06377 26.666016 186.66602 27.063768 186.66602 27.554688 L 186.66602 34.666016 C 186.66602 35.156935 186.26826 35.554688 185.77734 35.554688 L 160.88867 35.554688 C 160.39775 35.554687 160 35.156935 160 34.666016 L 160 27.554688 C 160 27.063768 159.60225 26.666016 159.11133 26.666016 L 143.11133 26.666016 C 142.62041 26.666016 142.22266 26.268263 142.22266 25.777344 L 142.22266 17.777344 L 133.33398 17.777344 L 133.33398 35.554688 z M 133.33398 17.777344 L 133.33398 0.88867188 C 133.33398 0.39775237 132.93623 0 132.44531 0 L 116.44531 0 C 115.95439 -7.4014794e-17 115.55469 0.39775237 115.55469 0.88867188 L 115.55469 16.888672 C 115.55469 17.379591 115.95439 17.777344 116.44531 17.777344 L 132.44531 17.777344 L 133.33398 17.777344 z M 142.22266 17.777344 L 150.22266 17.777344 C 150.71358 17.777344 151.11133 17.379591 151.11133 16.888672 L 151.11133 0.88867188 C 151.11133 0.39775237 150.71358 0 150.22266 0 L 143.11133 0 C 142.62041 -7.4014794e-17 142.22266 0.39775237 142.22266 0.88867188 L 142.22266 17.777344 z M 195.55469 26.666016 L 203.55469 26.666016 C 204.0456 26.666016 204.44531 26.268263 204.44531 25.777344 L 204.44531 9.7773438 C 204.44531 9.2864242 204.84307 8.8886719 205.33398 8.8886719 L 212.44531 8.8886719 C 212.93623 8.8886719 213.33398 8.4909195 213.33398 8 L 213.33398 0.88867188 C 213.33398 0.39775237 212.93623 0 212.44531 0 L 178.66602 0 C 178.1751 -7.4014794e-17 177.77734 0.39775237 177.77734 0.88867188 L 177.77734 8 C 177.77734 8.4909195 177.37959 8.8886719 176.88867 8.8886719 L 160.88867 8.8886719 C 160.39775 8.8886719 160 9.2864242 160 9.7773438 L 160 16.888672 C 160 17.379591 160.39775 17.777344 160.88867 17.777344 L 185.77734 17.777344 C 186.26826 17.777344 186.66602 17.379591 186.66602 16.888672 L 186.66602 9.7773438 C 186.66602 9.2864242 187.06377 8.8886719 187.55469 8.8886719 L 194.66602 8.8886719 C 195.15693 8.8886719 195.55469 9.2864242 195.55469 9.7773438 L 195.55469 26.666016 z M 222.22266 17.777344 L 230.22266 17.777344 C 230.71357 17.777344 231.11133 17.379591 231.11133 16.888672 L 231.11133 9.7773438 C 231.11133 9.2864242 230.71357 8.8886719 230.22266 8.8886719 L 223.11133 8.8886719 C 222.62042 8.8886719 222.22266 9.2864242 222.22266 9.7773438 L 222.22266 17.777344 z M 231.11133 35.554688 L 231.11133 43.554688 C 231.11133 44.045607 231.50909 44.445312 232 44.445312 L 239.11133 44.445312 L 240 44.445312 L 240 35.554688 L 231.11133 35.554688 z M 240 35.554688 L 248 35.554688 C 248.49091 35.554687 248.88867 35.156935 248.88867 34.666016 L 248.88867 18.666016 C 248.88867 18.175096 249.28643 17.777344 249.77734 17.777344 L 284.44531 17.777344 L 284.44531 0.88867188 C 284.44531 0.39775237 284.04561 0 283.55469 0 L 267.55469 0 C 267.06377 -7.4014794e-17 266.66602 0.39775237 266.66602 0.88867188 L 266.66602 8 C 266.66602 8.4909195 266.26825 8.8886719 265.77734 8.8886719 L 258.66602 8.8886719 C 258.17511 8.8886719 257.77734 8.4909195 257.77734 8 L 257.77734 0.88867188 C 257.77734 0.39775237 257.37958 0 256.88867 0 L 240.88867 0 C 240.39776 -7.4014794e-17 240 0.39775237 240 0.88867188 L 240 35.554688 z M 284.44531 17.777344 L 284.44531 25.777344 C 284.44531 26.268263 284.84307 26.666016 285.33398 26.666016 L 292.44531 26.666016 L 293.33398 26.666016 L 293.33398 17.777344 L 284.44531 17.777344 z M 293.33398 17.777344 L 301.33398 17.777344 C 301.82489 17.777344 302.22266 17.379591 302.22266 16.888672 L 302.22266 0.88867188 C 302.22266 0.39775237 301.82489 0 301.33398 0 L 294.22266 0 C 293.73175 -7.4014794e-17 293.33398 0.39775237 293.33398 0.88867188 L 293.33398 17.777344 z M 293.33398 26.666016 L 293.33398 34.666016 C 293.33398 35.156935 292.93622 35.554688 292.44531 35.554688 L 285.33398 35.554688 C 284.84307 35.554687 284.44531 35.954393 284.44531 36.445312 L 284.44531 71.111328 L 292.44531 71.111328 L 293.33398 71.111328 L 293.33398 45.333984 C 293.33398 44.843065 293.73175 44.445312 294.22266 44.445312 L 328 44.445312 C 328.49091 44.445313 328.88867 44.045607 328.88867 43.554688 L 328.88867 27.554688 C 328.88867 27.063768 328.49091 26.666016 328 26.666016 L 320.88867 26.666016 C 320.39776 26.666016 320 26.268263 320 25.777344 L 320 8.8886719 L 312 8.8886719 C 311.50909 8.8886719 311.11133 9.2864242 311.11133 9.7773438 L 311.11133 34.666016 C 311.11133 35.156935 310.71357 35.554688 310.22266 35.554688 L 303.11133 35.554688 C 302.62042 35.554687 302.22266 35.156935 302.22266 34.666016 L 302.22266 27.554688 C 302.22266 27.063768 301.82489 26.666016 301.33398 26.666016 L 293.33398 26.666016 z M 320 8.8886719 L 328 8.8886719 C 328.49091 8.8886719 328.88867 8.4909195 328.88867 8 L 328.88867 0.88867188 C 328.88867 0.39775237 328.49091 0 328 0 L 320.88867 0 C 320.39776 -7.4014794e-17 320 0.39775237 320 0.88867188 L 320 8.8886719 z M 293.33398 71.111328 L 293.33398 79.111328 C 293.33398 79.602248 292.93622 80 292.44531 80 L 285.33398 80 C 284.84307 80 284.44531 79.602248 284.44531 79.111328 L 284.44531 71.111328 L 267.55469 71.111328 C 267.06377 71.111328 266.66602 71.50908 266.66602 72 L 266.66602 79.111328 C 266.66602 79.602248 267.06377 80 267.55469 80 L 274.66602 80 C 275.15693 80 275.55469 80.397752 275.55469 80.888672 L 275.55469 97.777344 L 292.44531 97.777344 C 292.93622 97.777344 293.33398 97.379591 293.33398 96.888672 L 293.33398 89.777344 C 293.33398 89.286424 293.73175 88.888672 294.22266 88.888672 L 302.22266 88.888672 L 302.22266 72 C 302.22266 71.50908 301.82489 71.111328 301.33398 71.111328 L 293.33398 71.111328 z M 302.22266 88.888672 L 302.22266 105.77734 C 302.22266 106.26826 302.62042 106.66602 303.11133 106.66602 L 336.88867 106.66602 C 337.37958 106.66602 337.77734 107.06377 337.77734 107.55469 L 337.77734 115.55469 L 354.66602 115.55469 C 355.15693 115.55469 355.55469 115.95439 355.55469 116.44531 L 355.55469 123.55469 C 355.55469 124.04561 355.15693 124.44531 354.66602 124.44531 L 338.66602 124.44531 C 338.1751 124.44531 337.77734 124.04561 337.77734 123.55469 L 337.77734 115.55469 L 329.77734 115.55469 C 329.28643 115.55469 328.88867 115.95439 328.88867 116.44531 L 328.88867 133.33398 L 354.66602 133.33398 C 355.15693 133.33398 355.55469 133.73174 355.55469 134.22266 L 355.55469 142.22266 L 363.55469 142.22266 L 364.44531 142.22266 L 364.44531 134.22266 C 364.44531 133.73174 364.84307 133.33398 365.33398 133.33398 L 390.22266 133.33398 C 390.71357 133.33398 391.11133 132.93623 391.11133 132.44531 L 391.11133 124.44531 L 383.11133 124.44531 C 382.62042 124.44531 382.22266 124.04561 382.22266 123.55469 L 382.22266 115.55469 L 365.33398 115.55469 C 364.84307 115.55469 364.44531 115.15694 364.44531 114.66602 L 364.44531 107.55469 C 364.44531 107.06377 364.84307 106.66602 365.33398 106.66602 L 372.44531 106.66602 C 372.93622 106.66602 373.33398 106.26826 373.33398 105.77734 L 373.33398 97.777344 L 365.33398 97.777344 C 364.84307 97.777344 364.44531 97.379591 364.44531 96.888672 L 364.44531 89.777344 C 364.44531 89.286424 364.04561 88.888672 363.55469 88.888672 L 355.55469 88.888672 L 355.55469 96.888672 C 355.55469 97.379591 355.15693 97.777344 354.66602 97.777344 L 312 97.777344 C 311.50909 97.777344 311.11133 97.379591 311.11133 96.888672 L 311.11133 89.777344 C 311.11133 89.286424 310.71357 88.888672 310.22266 88.888672 L 302.22266 88.888672 z M 355.55469 88.888672 L 355.55469 80.888672 C 355.55469 80.397752 355.9544 80 356.44531 80 L 372.44531 80 C 372.93622 80 373.33398 79.602248 373.33398 79.111328 L 373.33398 72 C 373.33398 71.50908 372.93622 71.111328 372.44531 71.111328 L 347.55469 71.111328 C 347.06378 71.111328 346.66602 71.50908 346.66602 72 L 346.66602 88 C 346.66602 88.49092 347.06378 88.888672 347.55469 88.888672 L 354.66602 88.888672 L 355.55469 88.888672 z M 373.33398 97.777344 L 381.33398 97.777344 C 381.82489 97.777344 382.22266 98.175096 382.22266 98.666016 L 382.22266 115.55469 L 390.22266 115.55469 L 391.11133 115.55469 L 391.11133 107.55469 C 391.11133 107.06377 391.50909 106.66602 392 106.66602 L 399.11133 106.66602 C 399.60224 106.66602 400 106.26826 400 105.77734 L 400 72 C 400 71.50908 399.60224 71.111328 399.11133 71.111328 L 383.11133 71.111328 C 382.62042 71.111328 382.22266 71.50908 382.22266 72 L 382.22266 88 C 382.22266 88.49092 381.82489 88.888672 381.33398 88.888672 L 374.22266 88.888672 C 373.73175 88.888672 373.33398 89.286424 373.33398 89.777344 L 373.33398 97.777344 z M 391.11133 115.55469 L 391.11133 124.44531 L 399.11133 124.44531 C 399.60224 124.44531 400 124.04561 400 123.55469 L 400 116.44531 C 400 115.95439 399.60224 115.55469 399.11133 115.55469 L 391.11133 115.55469 z M 364.44531 142.22266 L 364.44531 151.11133 L 372.44531 151.11133 L 373.33398 151.11133 L 373.33398 143.11133 C 373.33398 142.62041 372.93622 142.22266 372.44531 142.22266 L 364.44531 142.22266 z M 373.33398 151.11133 L 373.33398 159.11133 C 373.33398 159.60225 372.93622 160 372.44531 160 L 364.44531 160 L 364.44531 168 C 364.44531 168.49092 364.84307 168.88867 365.33398 168.88867 L 399.11133 168.88867 C 399.60224 168.88867 400 168.49092 400 168 L 400 160.88867 C 400 160.39775 399.60224 160 399.11133 160 L 392 160 C 391.50909 160 391.11133 159.60225 391.11133 159.11133 L 391.11133 143.11133 C 391.11133 142.62041 390.71357 142.22266 390.22266 142.22266 L 383.11133 142.22266 C 382.62042 142.22266 382.22266 142.62041 382.22266 143.11133 L 382.22266 150.22266 C 382.22266 150.71358 381.82489 151.11133 381.33398 151.11133 L 373.33398 151.11133 z M 364.44531 160 L 364.44531 151.11133 L 356.44531 151.11133 C 355.9544 151.11133 355.55469 150.71358 355.55469 150.22266 L 355.55469 142.22266 L 338.66602 142.22266 C 338.1751 142.22266 337.77734 142.62041 337.77734 143.11133 L 337.77734 159.11133 C 337.77734 159.60225 338.1751 160 338.66602 160 L 363.55469 160 L 364.44531 160 z M 328.88867 133.33398 L 320 133.33398 L 320 141.33398 C 320 141.8249 320.39776 142.22266 320.88867 142.22266 L 328 142.22266 C 328.49091 142.22266 328.88867 141.8249 328.88867 141.33398 L 328.88867 133.33398 z M 320 133.33398 L 320 116.44531 C 320 115.95439 319.60224 115.55469 319.11133 115.55469 L 294.22266 115.55469 C 293.73175 115.55469 293.33398 115.15694 293.33398 114.66602 L 293.33398 107.55469 C 293.33398 107.06377 292.93622 106.66602 292.44531 106.66602 L 276.44531 106.66602 C 275.9544 106.66602 275.55469 106.26826 275.55469 105.77734 L 275.55469 97.777344 L 267.55469 97.777344 C 267.06377 97.777344 266.66602 98.175096 266.66602 98.666016 L 266.66602 105.77734 C 266.66602 106.26826 266.26825 106.66602 265.77734 106.66602 L 257.77734 106.66602 L 257.77734 115.55469 L 274.66602 115.55469 C 275.15693 115.55469 275.55469 115.95439 275.55469 116.44531 L 275.55469 142.22266 L 283.55469 142.22266 C 284.04561 142.22266 284.44531 142.62041 284.44531 143.11133 L 284.44531 150.22266 C 284.44531 150.71358 284.84307 151.11133 285.33398 151.11133 L 301.33398 151.11133 C 301.82489 151.11133 302.22266 150.71358 302.22266 150.22266 L 302.22266 142.22266 L 294.22266 142.22266 C 293.73175 142.22266 293.33398 141.8249 293.33398 141.33398 L 293.33398 134.22266 C 293.33398 133.73174 292.93622 133.33398 292.44531 133.33398 L 285.33398 133.33398 C 284.84307 133.33398 284.44531 132.93623 284.44531 132.44531 L 284.44531 125.33398 C 284.44531 124.84306 284.84307 124.44531 285.33398 124.44531 L 310.22266 124.44531 C 310.71357 124.44531 311.11133 124.84306 311.11133 125.33398 L 311.11133 133.33398 L 320 133.33398 z M 311.11133 133.33398 L 303.11133 133.33398 C 302.62042 133.33398 302.22266 133.73174 302.22266 134.22266 L 302.22266 142.22266 L 310.22266 142.22266 C 310.71357 142.22266 311.11133 141.8249 311.11133 141.33398 L 311.11133 133.33398 z M 275.55469 142.22266 L 267.55469 142.22266 C 267.06377 142.22266 266.66602 141.8249 266.66602 141.33398 L 266.66602 125.33398 C 266.66602 124.84306 266.26825 124.44531 265.77734 124.44531 L 257.77734 124.44531 L 257.77734 132.44531 C 257.77734 132.93623 257.37958 133.33398 256.88867 133.33398 L 249.77734 133.33398 C 249.28643 133.33398 248.88867 133.73174 248.88867 134.22266 L 248.88867 142.22266 L 256.88867 142.22266 C 257.37958 142.22266 257.77734 142.62041 257.77734 143.11133 L 257.77734 151.11133 L 274.66602 151.11133 C 275.15693 151.11133 275.55469 150.71358 275.55469 150.22266 L 275.55469 142.22266 z M 257.77734 151.11133 L 255.50195 151.11133 A 73.999999 73.999999 0 0 1 257.77734 153.85352 L 257.77734 151.11133 z M 248.88867 142.22266 L 246.14648 142.22266 A 73.999999 73.999999 0 0 1 248.88867 144.49805 L 248.88867 142.22266 z M 257.77734 124.44531 L 257.77734 115.55469 L 249.77734 115.55469 C 249.28643 115.55469 248.88867 115.15694 248.88867 114.66602 L 248.88867 107.55469 C 248.88867 107.06377 249.28643 106.66602 249.77734 106.66602 L 257.77734 106.66602 L 257.77734 98.666016 C 257.77734 98.175096 257.37958 97.777344 256.88867 97.777344 L 240.88867 97.777344 C 240.39776 97.777344 240 97.379591 240 96.888672 L 240 88.888672 L 232 88.888672 C 231.50909 88.888672 231.11133 88.49092 231.11133 88 L 231.11133 80.888672 C 231.11133 80.397752 230.71357 80 230.22266 80 L 222.22266 80 L 222.22266 88 C 222.22266 88.49092 221.82489 88.888672 221.33398 88.888672 L 213.33398 88.888672 L 213.33398 97.777344 L 221.33398 97.777344 C 221.82489 97.777344 222.22266 98.175096 222.22266 98.666016 L 222.22266 106.66602 L 230.22266 106.66602 C 230.71357 106.66602 231.11133 107.06377 231.11133 107.55469 L 231.11133 123.55469 C 231.11133 124.04561 230.71357 124.44531 230.22266 124.44531 L 222.22266 124.44531 L 222.22266 129.43945 A 73.999999 73.999999 0 0 1 240 137.79688 L 240 125.33398 C 240 124.84306 240.39776 124.44531 240.88867 124.44531 L 257.77734 124.44531 z M 222.22266 124.44531 L 222.22266 106.66602 L 213.33398 106.66602 L 213.33398 124.44531 L 221.33398 124.44531 L 222.22266 124.44531 z M 240 88.888672 L 248 88.888672 C 248.49091 88.888672 248.88867 88.49092 248.88867 88 L 248.88867 80.888672 C 248.88867 80.397752 248.49091 80 248 80 L 240.88867 80 C 240.39776 80 240 80.397752 240 80.888672 L 240 88.888672 z M 240 44.445312 L 240 53.333984 L 248 53.333984 L 248.88867 53.333984 L 248.88867 45.333984 C 248.88867 44.843065 248.49091 44.445312 248 44.445312 L 240 44.445312 z M 248.88867 53.333984 L 248.88867 61.333984 C 248.88867 61.824904 249.28643 62.222656 249.77734 62.222656 L 256.88867 62.222656 C 257.37958 62.222656 257.77734 61.824904 257.77734 61.333984 L 257.77734 54.222656 C 257.77734 53.731737 257.37958 53.333984 256.88867 53.333984 L 248.88867 53.333984 z M 240 53.333984 L 232 53.333984 C 231.50909 53.333984 231.11133 53.731737 231.11133 54.222656 L 231.11133 62.222656 L 239.11133 62.222656 C 239.60224 62.222656 240 61.824904 240 61.333984 L 240 53.333984 z M 168.88867 88.888672 L 168.88867 80.888672 C 168.88867 80.397752 168.49092 80 168 80 L 160.88867 80 C 160.39775 80 160 80.397752 160 80.888672 L 160 88 C 160 88.49092 160.39775 88.888672 160.88867 88.888672 L 168 88.888672 L 168.88867 88.888672 z M 151.11133 53.333984 L 143.11133 53.333984 C 142.62041 53.333984 142.22266 53.731737 142.22266 54.222656 L 142.22266 88 C 142.22266 88.49092 141.8249 88.888672 141.33398 88.888672 L 133.33398 88.888672 L 133.33398 96.888672 C 133.33398 97.379591 132.93623 97.777344 132.44531 97.777344 L 125.33398 97.777344 C 124.84306 97.777344 124.44531 97.379591 124.44531 96.888672 L 124.44531 88.888672 L 115.55469 88.888672 L 115.55469 105.77734 C 115.55469 106.26826 115.95439 106.66602 116.44531 106.66602 L 123.55469 106.66602 C 124.04561 106.66602 124.44531 107.06377 124.44531 107.55469 L 124.44531 115.55469 L 132.44531 115.55469 L 133.33398 115.55469 L 133.33398 107.55469 C 133.33398 107.06377 133.73174 106.66602 134.22266 106.66602 L 141.33398 106.66602 C 141.8249 106.66602 142.22266 106.26826 142.22266 105.77734 L 142.22266 98.666016 C 142.22266 98.175096 142.62041 97.777344 143.11133 97.777344 L 150.22266 97.777344 C 150.71358 97.777344 151.11133 97.379591 151.11133 96.888672 L 151.11133 53.333984 z M 133.33398 115.55469 L 133.33398 123.55469 C 133.33398 124.04561 133.73174 124.44531 134.22266 124.44531 L 141.33398 124.44531 C 141.8249 124.44531 142.22266 124.04561 142.22266 123.55469 L 142.22266 116.44531 C 142.22266 115.95439 141.8249 115.55469 141.33398 115.55469 L 133.33398 115.55469 z M 124.44531 115.55469 L 116.44531 115.55469 C 115.95439 115.55469 115.55469 115.95439 115.55469 116.44531 L 115.55469 123.55469 C 115.55469 124.04561 115.95439 124.44531 116.44531 124.44531 L 123.55469 124.44531 C 124.04561 124.44531 124.44531 124.04561 124.44531 123.55469 L 124.44531 115.55469 z M 115.55469 88.888672 L 115.55469 80.888672 C 115.55469 80.397752 115.95439 80 116.44531 80 L 124.44531 80 L 124.44531 71.111328 L 116.44531 71.111328 C 115.95439 71.111328 115.55469 70.713576 115.55469 70.222656 L 115.55469 44.445312 L 97.777344 44.445312 L 97.777344 53.333984 L 105.77734 53.333984 C 106.26826 53.333984 106.66602 53.731737 106.66602 54.222656 L 106.66602 70.222656 C 106.66602 70.713576 106.26826 71.111328 105.77734 71.111328 L 97.777344 71.111328 L 97.777344 88.888672 L 114.66602 88.888672 L 115.55469 88.888672 z M 97.777344 88.888672 L 89.777344 88.888672 C 89.286424 88.888672 88.888672 88.49092 88.888672 88 L 88.888672 72 C 88.888672 71.50908 89.286424 71.111328 89.777344 71.111328 L 97.777344 71.111328 L 97.777344 53.333984 L 88.888672 53.333984 L 88.888672 61.333984 C 88.888672 61.824904 88.49092 62.222656 88 62.222656 L 80 62.222656 L 80 96.888672 C 80 97.379591 79.602248 97.777344 79.111328 97.777344 L 72 97.777344 C 71.50908 97.777344 71.111328 97.379591 71.111328 96.888672 L 71.111328 89.777344 C 71.111328 89.286424 70.713576 88.888672 70.222656 88.888672 L 54.222656 88.888672 C 53.731737 88.888672 53.333984 89.286424 53.333984 89.777344 L 53.333984 97.777344 L 61.333984 97.777344 C 61.824904 97.777344 62.222656 98.175096 62.222656 98.666016 L 62.222656 106.66602 L 88 106.66602 C 88.49092 106.66602 88.888672 107.06377 88.888672 107.55469 L 88.888672 123.55469 C 88.888672 124.04561 88.49092 124.44531 88 124.44531 L 80 124.44531 L 80 133.33398 L 88 133.33398 C 88.49092 133.33398 88.888672 133.73174 88.888672 134.22266 L 88.888672 141.33398 C 88.888672 141.8249 88.49092 142.22266 88 142.22266 L 80 142.22266 L 80 151.11133 L 96.888672 151.11133 C 97.379591 151.11133 97.777344 150.71358 97.777344 150.22266 L 97.777344 134.22266 C 97.777344 133.73174 98.175096 133.33398 98.666016 133.33398 L 105.77734 133.33398 C 106.26826 133.33398 106.66602 132.93623 106.66602 132.44531 L 106.66602 125.33398 C 106.66602 124.84306 106.26826 124.44531 105.77734 124.44531 L 98.666016 124.44531 C 98.175096 124.44531 97.777344 124.04561 97.777344 123.55469 L 97.777344 88.888672 z M 80 151.11133 L 72 151.11133 C 71.50908 151.11133 71.111328 151.50908 71.111328 152 L 71.111328 159.11133 C 71.111328 159.60225 70.713576 160 70.222656 160 L 45.333984 160 C 44.843065 160 44.445312 159.60225 44.445312 159.11133 L 44.445312 152 C 44.445312 151.50908 44.843065 151.11133 45.333984 151.11133 L 61.333984 151.11133 C 61.824904 151.11133 62.222656 150.71358 62.222656 150.22266 L 62.222656 143.11133 C 62.222656 142.62041 61.824904 142.22266 61.333984 142.22266 L 54.222656 142.22266 C 53.731737 142.22266 53.333984 141.8249 53.333984 141.33398 L 53.333984 134.22266 C 53.333984 133.73174 53.731737 133.33398 54.222656 133.33398 L 61.333984 133.33398 C 61.824904 133.33398 62.222656 132.93623 62.222656 132.44531 L 62.222656 124.44531 L 54.222656 124.44531 C 53.731737 124.44531 53.333984 124.04561 53.333984 123.55469 L 53.333984 116.44531 C 53.333984 115.95439 53.731737 115.55469 54.222656 115.55469 L 62.222656 115.55469 L 62.222656 106.66602 L 54.222656 106.66602 C 53.731737 106.66602 53.333984 106.26826 53.333984 105.77734 L 53.333984 97.777344 L 8.8886719 97.777344 L 8.8886719 106.66602 L 43.554688 106.66602 C 44.045607 106.66602 44.445312 107.06377 44.445312 107.55469 L 44.445312 114.66602 C 44.445313 115.15694 44.045607 115.55469 43.554688 115.55469 L 36.445312 115.55469 C 35.954393 115.55469 35.554688 115.95439 35.554688 116.44531 L 35.554688 132.44531 C 35.554687 132.93623 35.156935 133.33398 34.666016 133.33398 L 27.554688 133.33398 C 27.063768 133.33398 26.666016 133.73174 26.666016 134.22266 L 26.666016 141.33398 C 26.666016 141.8249 27.063768 142.22266 27.554688 142.22266 L 34.666016 142.22266 C 35.156935 142.22266 35.554688 142.62041 35.554688 143.11133 L 35.554688 150.22266 C 35.554687 150.71358 35.156935 151.11133 34.666016 151.11133 L 27.554688 151.11133 C 27.063768 151.11133 26.666016 151.50908 26.666016 152 L 26.666016 159.11133 C 26.666016 159.60225 26.268263 160 25.777344 160 L 17.777344 160 L 17.777344 168 C 17.777344 168.49092 18.175096 168.88867 18.666016 168.88867 L 25.777344 168.88867 C 26.268263 168.88867 26.666016 169.28642 26.666016 169.77734 L 26.666016 185.77734 C 26.666016 186.26826 27.063768 186.66602 27.554688 186.66602 L 34.666016 186.66602 C 35.156935 186.66602 35.554688 187.06377 35.554688 187.55469 L 35.554688 203.55469 C 35.554687 204.0456 35.156935 204.44531 34.666016 204.44531 L 27.554688 204.44531 C 27.063768 204.44531 26.666016 204.84307 26.666016 205.33398 L 26.666016 221.33398 C 26.666016 221.82489 26.268263 222.22266 25.777344 222.22266 L 9.7773438 222.22266 C 9.2864242 222.22266 8.8886719 222.62042 8.8886719 223.11133 L 8.8886719 239.11133 C 8.8886719 239.60224 8.4909195 240 8 240 L 0.88867188 240 C 0.39775237 240 0 240.39776 0 240.88867 L 0 248 C -7.4014794e-17 248.49091 0.39775237 248.88867 0.88867188 248.88867 L 8 248.88867 C 8.4909195 248.88867 8.8886719 249.28643 8.8886719 249.77734 L 8.8886719 256.88867 C 8.8886719 257.37958 9.2864242 257.77734 9.7773438 257.77734 L 16.888672 257.77734 L 17.777344 257.77734 L 17.777344 232 C 17.777344 231.50909 18.175096 231.11133 18.666016 231.11133 L 25.777344 231.11133 C 26.268263 231.11133 26.666016 231.50909 26.666016 232 L 26.666016 239.11133 C 26.666016 239.60224 27.063768 240 27.554688 240 L 34.666016 240 C 35.156935 240 35.554688 239.60224 35.554688 239.11133 L 35.554688 232 C 35.554687 231.50909 35.954393 231.11133 36.445312 231.11133 L 53.333984 231.11133 L 53.333984 223.11133 C 53.333984 222.62042 53.731737 222.22266 54.222656 222.22266 L 61.333984 222.22266 C 61.824904 222.22266 62.222656 222.62042 62.222656 223.11133 L 62.222656 231.11133 L 80 231.11133 L 80 223.11133 C 80 222.62042 80.397752 222.22266 80.888672 222.22266 L 88.888672 222.22266 L 88.888672 205.33398 C 88.888672 204.84307 88.49092 204.44531 88 204.44531 L 80.888672 204.44531 C 80.397752 204.44531 80 204.0456 80 203.55469 L 80 187.55469 C 80 187.06377 80.397752 186.66602 80.888672 186.66602 L 88 186.66602 C 88.49092 186.66602 88.888672 187.06377 88.888672 187.55469 L 88.888672 194.66602 C 88.888672 195.15693 89.286424 195.55469 89.777344 195.55469 L 96.888672 195.55469 C 97.379591 195.55469 97.777344 195.15693 97.777344 194.66602 L 97.777344 178.66602 C 97.777344 178.1751 98.175096 177.77734 98.666016 177.77734 L 123.55469 177.77734 C 124.04561 177.77734 124.44531 177.37959 124.44531 176.88867 L 124.44531 160 L 89.777344 160 C 89.286424 160 88.888672 160.39775 88.888672 160.88867 L 88.888672 176.88867 C 88.888672 177.37959 88.49092 177.77734 88 177.77734 L 80.888672 177.77734 C 80.397752 177.77734 80 177.37959 80 176.88867 L 80 151.11133 z M 124.44531 160 L 132.44531 160 C 132.93623 160 133.33398 159.60225 133.33398 159.11133 L 133.33398 151.11133 L 124.44531 151.11133 L 124.44531 160 z M 124.44531 151.11133 L 124.44531 142.22266 L 107.55469 142.22266 C 107.06377 142.22266 106.66602 142.62041 106.66602 143.11133 L 106.66602 150.22266 C 106.66602 150.71358 107.06377 151.11133 107.55469 151.11133 L 123.55469 151.11133 L 124.44531 151.11133 z M 124.44531 142.22266 L 132.44531 142.22266 L 133.33398 142.22266 L 133.33398 134.22266 C 133.33398 133.73174 132.93623 133.33398 132.44531 133.33398 L 125.33398 133.33398 C 124.84306 133.33398 124.44531 133.73174 124.44531 134.22266 L 124.44531 142.22266 z M 133.33398 142.22266 L 133.33398 151.11133 L 144.89453 151.11133 A 73.999999 73.999999 0 0 1 153.7832 142.22266 L 133.33398 142.22266 z M 88.888672 222.22266 L 88.888672 231.11133 L 96.888672 231.11133 L 97.777344 231.11133 L 97.777344 223.11133 C 97.777344 222.62042 97.379591 222.22266 96.888672 222.22266 L 88.888672 222.22266 z M 97.777344 231.11133 L 97.777344 240 L 105.77734 240 C 106.26826 240 106.66602 239.60224 106.66602 239.11133 L 106.66602 231.11133 L 97.777344 231.11133 z M 106.66602 231.11133 L 114.66602 231.11133 C 115.15694 231.11133 115.55469 231.50909 115.55469 232 L 115.55469 239.11133 C 115.55469 239.60224 115.95439 240 116.44531 240 L 123.55469 240 C 124.04561 240 124.44531 240.39776 124.44531 240.88867 L 124.44531 256.88867 C 124.44531 257.37958 124.84306 257.77734 125.33398 257.77734 L 132.44531 257.77734 C 132.93623 257.77734 133.33398 258.17511 133.33398 258.66602 L 133.33398 265.77734 C 133.33398 266.26825 132.93623 266.66602 132.44531 266.66602 L 125.33398 266.66602 C 124.84306 266.66602 124.44531 267.06377 124.44531 267.55469 L 124.44531 274.66602 C 124.44531 275.15693 124.04561 275.55469 123.55469 275.55469 L 116.44531 275.55469 C 115.95439 275.55469 115.55469 275.9544 115.55469 276.44531 L 115.55469 283.55469 C 115.55469 284.04561 115.15694 284.44531 114.66602 284.44531 L 98.666016 284.44531 C 98.175096 284.44531 97.777344 284.84307 97.777344 285.33398 L 97.777344 292.44531 C 97.777344 292.93622 97.379591 293.33398 96.888672 293.33398 L 89.777344 293.33398 C 89.286424 293.33398 88.888672 292.93622 88.888672 292.44531 L 88.888672 285.33398 C 88.888672 284.84307 88.49092 284.44531 88 284.44531 L 80 284.44531 L 80 292.44531 C 80 292.93622 79.602248 293.33398 79.111328 293.33398 L 71.111328 293.33398 L 71.111328 310.22266 C 71.111328 310.71357 70.713576 311.11133 70.222656 311.11133 L 62.222656 311.11133 L 62.222656 320 L 70.222656 320 C 70.713576 320 71.111328 320.39776 71.111328 320.88867 L 71.111328 336.88867 C 71.111328 337.37958 71.50908 337.77734 72 337.77734 L 88.888672 337.77734 L 88.888672 328.88867 L 80.888672 328.88867 C 80.397752 328.88867 80 328.49091 80 328 L 80 320.88867 C 80 320.39776 80.397752 320 80.888672 320 L 88 320 C 88.49092 320 88.888672 320.39776 88.888672 320.88867 L 88.888672 328.88867 L 97.777344 328.88867 L 97.777344 312 C 97.777344 311.50909 97.379591 311.11133 96.888672 311.11133 L 80.888672 311.11133 C 80.397752 311.11133 80 310.71357 80 310.22266 L 80 303.11133 C 80 302.62042 80.397752 302.22266 80.888672 302.22266 L 105.77734 302.22266 C 106.26826 302.22266 106.66602 301.82489 106.66602 301.33398 L 106.66602 294.22266 C 106.66602 293.73175 107.06377 293.33398 107.55469 293.33398 L 114.66602 293.33398 C 115.15694 293.33398 115.55469 293.73175 115.55469 294.22266 L 115.55469 319.11133 C 115.55469 319.60224 115.15694 320 114.66602 320 L 107.55469 320 C 107.06377 320 106.66602 320.39776 106.66602 320.88867 L 106.66602 328.88867 L 123.55469 328.88867 C 124.04561 328.88867 124.44531 329.28643 124.44531 329.77734 L 124.44531 336.88867 C 124.44531 337.37958 124.84306 337.77734 125.33398 337.77734 L 141.33398 337.77734 C 141.8249 337.77734 142.22266 338.1751 142.22266 338.66602 L 142.22266 346.66602 L 150.22266 346.66602 C 150.71358 346.66602 151.11133 347.06378 151.11133 347.55469 L 151.11133 354.66602 C 151.11133 355.15693 151.50908 355.55469 152 355.55469 L 159.11133 355.55469 C 159.60225 355.55469 160 355.9544 160 356.44531 L 160 381.33398 C 160 381.82489 159.60225 382.22266 159.11133 382.22266 L 151.11133 382.22266 L 151.11133 390.22266 C 151.11133 390.71357 150.71358 391.11133 150.22266 391.11133 L 143.11133 391.11133 C 142.62041 391.11133 142.22266 391.50909 142.22266 392 L 142.22266 399.11133 C 142.22266 399.60224 142.62041 400 143.11133 400 L 159.11133 400 C 159.60225 400 160 399.60224 160 399.11133 L 160 392 C 160 391.50909 160.39775 391.11133 160.88867 391.11133 L 168.88867 391.11133 L 168.88867 356.44531 C 168.88867 355.9544 169.28642 355.55469 169.77734 355.55469 L 176.88867 355.55469 C 177.37959 355.55469 177.77734 355.9544 177.77734 356.44531 L 177.77734 372.44531 C 177.77734 372.93622 178.1751 373.33398 178.66602 373.33398 L 185.77734 373.33398 C 186.26826 373.33398 186.66602 372.93622 186.66602 372.44531 L 186.66602 365.33398 C 186.66602 364.84307 187.06377 364.44531 187.55469 364.44531 L 194.66602 364.44531 C 195.15693 364.44531 195.55469 364.84307 195.55469 365.33398 L 195.55469 390.22266 C 195.55469 390.71357 195.15693 391.11133 194.66602 391.11133 L 168.88867 391.11133 L 168.88867 399.11133 C 168.88867 399.60224 169.28642 400 169.77734 400 L 221.33398 400 C 221.82489 400 222.22266 399.60224 222.22266 399.11133 L 222.22266 392 C 222.22266 391.50909 222.62042 391.11133 223.11133 391.11133 L 230.22266 391.11133 C 230.71357 391.11133 231.11133 390.71357 231.11133 390.22266 L 231.11133 382.22266 L 223.11133 382.22266 C 222.62042 382.22266 222.22266 381.82489 222.22266 381.33398 L 222.22266 374.22266 C 222.22266 373.73175 221.82489 373.33398 221.33398 373.33398 L 205.33398 373.33398 C 204.84307 373.33398 204.44531 372.93622 204.44531 372.44531 L 204.44531 365.33398 C 204.44531 364.84307 204.84307 364.44531 205.33398 364.44531 L 231.11133 364.44531 L 231.11133 356.44531 C 231.11133 355.9544 231.50909 355.55469 232 355.55469 L 239.11133 355.55469 C 239.60224 355.55469 240 355.9544 240 356.44531 L 240 363.55469 C 240 364.04561 239.60224 364.44531 239.11133 364.44531 L 231.11133 364.44531 L 231.11133 382.22266 L 239.11133 382.22266 C 239.60224 382.22266 240 382.62042 240 383.11133 L 240 399.11133 C 240 399.60224 240.39776 400 240.88867 400 L 248 400 C 248.49091 400 248.88867 399.60224 248.88867 399.11133 L 248.88867 392 C 248.88867 391.50909 249.28643 391.11133 249.77734 391.11133 L 256.88867 391.11133 C 257.37958 391.11133 257.77734 391.50909 257.77734 392 L 257.77734 399.11133 C 257.77734 399.60224 258.17511 400 258.66602 400 L 265.77734 400 C 266.26825 400 266.66602 399.60224 266.66602 399.11133 L 266.66602 392 C 266.66602 391.50909 267.06377 391.11133 267.55469 391.11133 L 293.33398 391.11133 L 293.33398 383.11133 C 293.33398 382.62042 293.73175 382.22266 294.22266 382.22266 L 302.22266 382.22266 L 302.22266 374.22266 C 302.22266 373.73175 301.82489 373.33398 301.33398 373.33398 L 275.55469 373.33398 L 275.55469 381.33398 C 275.55469 381.82489 275.15693 382.22266 274.66602 382.22266 L 267.55469 382.22266 C 267.06377 382.22266 266.66602 381.82489 266.66602 381.33398 L 266.66602 373.33398 L 249.77734 373.33398 C 249.28643 373.33398 248.88867 372.93622 248.88867 372.44531 L 248.88867 365.33398 C 248.88867 364.84307 249.28643 364.44531 249.77734 364.44531 L 265.77734 364.44531 C 266.26825 364.44531 266.66602 364.84307 266.66602 365.33398 L 266.66602 373.33398 L 275.55469 373.33398 L 275.55469 338.66602 C 275.55469 338.1751 275.9544 337.77734 276.44531 337.77734 L 292.44531 337.77734 C 292.93622 337.77734 293.33398 337.37958 293.33398 336.88867 L 293.33398 329.77734 C 293.33398 329.28643 293.73175 328.88867 294.22266 328.88867 L 301.33398 328.88867 C 301.82489 328.88867 302.22266 329.28643 302.22266 329.77734 L 302.22266 336.88867 C 302.22266 337.37958 302.62042 337.77734 303.11133 337.77734 L 311.11133 337.77734 L 311.11133 320.88867 C 311.11133 320.39776 311.50909 320 312 320 L 319.11133 320 C 319.60224 320 320 320.39776 320 320.88867 L 320 336.88867 C 320 337.37958 319.60224 337.77734 319.11133 337.77734 L 311.11133 337.77734 L 311.11133 345.77734 C 311.11133 346.26825 310.71357 346.66602 310.22266 346.66602 L 303.11133 346.66602 C 302.62042 346.66602 302.22266 347.06378 302.22266 347.55469 L 302.22266 355.55469 L 319.11133 355.55469 C 319.60224 355.55469 320 355.9544 320 356.44531 L 320 372.44531 C 320 372.93622 319.60224 373.33398 319.11133 373.33398 L 312 373.33398 C 311.50909 373.33398 311.11133 373.73175 311.11133 374.22266 L 311.11133 381.33398 C 311.11133 381.82489 310.71357 382.22266 310.22266 382.22266 L 302.22266 382.22266 L 302.22266 391.11133 L 320 391.11133 L 320 383.11133 C 320 382.62042 320.39776 382.22266 320.88867 382.22266 L 336.88867 382.22266 C 337.37958 382.22266 337.77734 381.82489 337.77734 381.33398 L 337.77734 374.22266 C 337.77734 373.73175 338.1751 373.33398 338.66602 373.33398 L 345.77734 373.33398 C 346.26825 373.33398 346.66602 373.73175 346.66602 374.22266 L 346.66602 381.33398 C 346.66602 381.82489 347.06378 382.22266 347.55469 382.22266 L 354.66602 382.22266 C 355.15693 382.22266 355.55469 382.62042 355.55469 383.11133 L 355.55469 391.11133 L 364.44531 391.11133 L 364.44531 383.11133 C 364.44531 382.62042 364.84307 382.22266 365.33398 382.22266 L 372.44531 382.22266 C 372.93622 382.22266 373.33398 381.82489 373.33398 381.33398 L 373.33398 374.22266 C 373.33398 373.73175 373.73175 373.33398 374.22266 373.33398 L 381.33398 373.33398 C 381.82489 373.33398 382.22266 373.73175 382.22266 374.22266 L 382.22266 381.33398 C 382.22266 381.82489 382.62042 382.22266 383.11133 382.22266 L 399.11133 382.22266 C 399.60224 382.22266 400 381.82489 400 381.33398 L 400 365.33398 C 400 364.84307 399.60224 364.44531 399.11133 364.44531 L 365.33398 364.44531 C 364.84307 364.44531 364.44531 364.04561 364.44531 363.55469 L 364.44531 347.55469 C 364.44531 347.06378 364.84307 346.66602 365.33398 346.66602 L 372.44531 346.66602 C 372.93622 346.66602 373.33398 346.26825 373.33398 345.77734 L 373.33398 337.77734 L 365.33398 337.77734 C 364.84307 337.77734 364.44531 337.37958 364.44531 336.88867 L 364.44531 329.77734 C 364.44531 329.28643 364.84307 328.88867 365.33398 328.88867 L 373.33398 328.88867 L 373.33398 311.11133 L 355.55469 311.11133 L 355.55469 319.11133 C 355.55469 319.60224 355.15693 320 354.66602 320 L 329.77734 320 C 329.28643 320 328.88867 319.60224 328.88867 319.11133 L 328.88867 312 C 328.88867 311.50909 329.28643 311.11133 329.77734 311.11133 L 355.55469 311.11133 L 355.55469 284.44531 L 347.55469 284.44531 C 347.06378 284.44531 346.66602 284.04561 346.66602 283.55469 L 346.66602 258.66602 C 346.66602 258.17511 347.06378 257.77734 347.55469 257.77734 L 364.44531 257.77734 L 364.44531 240.88867 C 364.44531 240.39776 364.04561 240 363.55469 240 L 356.44531 240 C 355.9544 240 355.55469 239.60224 355.55469 239.11133 L 355.55469 231.11133 L 347.55469 231.11133 C 347.06378 231.11133 346.66602 231.50909 346.66602 232 L 346.66602 239.11133 C 346.66602 239.60224 346.26825 240 345.77734 240 L 338.66602 240 C 338.1751 240 337.77734 239.60224 337.77734 239.11133 L 337.77734 223.11133 C 337.77734 222.62042 338.1751 222.22266 338.66602 222.22266 L 354.66602 222.22266 C 355.15693 222.22266 355.55469 222.62042 355.55469 223.11133 L 355.55469 231.11133 L 363.55469 231.11133 C 364.04561 231.11133 364.44531 230.71357 364.44531 230.22266 L 364.44531 187.55469 C 364.44531 187.06377 364.84307 186.66602 365.33398 186.66602 L 373.33398 186.66602 L 373.33398 178.66602 C 373.33398 178.1751 372.93622 177.77734 372.44531 177.77734 L 356.44531 177.77734 C 355.9544 177.77734 355.55469 177.37959 355.55469 176.88867 L 355.55469 169.77734 C 355.55469 169.28642 355.15693 168.88867 354.66602 168.88867 L 347.55469 168.88867 C 347.06378 168.88867 346.66602 169.28642 346.66602 169.77734 L 346.66602 176.88867 C 346.66602 177.37959 346.26825 177.77734 345.77734 177.77734 L 338.66602 177.77734 C 338.1751 177.77734 337.77734 177.37959 337.77734 176.88867 L 337.77734 169.77734 C 337.77734 169.28642 337.37958 168.88867 336.88867 168.88867 L 329.77734 168.88867 C 329.28643 168.88867 328.88867 168.49092 328.88867 168 L 328.88867 160.88867 C 328.88867 160.39775 328.49091 160 328 160 L 320.88867 160 C 320.39776 160 320 159.60225 320 159.11133 L 320 152 C 320 151.50908 319.60224 151.11133 319.11133 151.11133 L 312 151.11133 C 311.50909 151.11133 311.11133 151.50908 311.11133 152 L 311.11133 168 C 311.11133 168.49092 310.71357 168.88867 310.22266 168.88867 L 285.33398 168.88867 C 284.84307 168.88867 284.44531 168.49092 284.44531 168 L 284.44531 160.88867 C 284.44531 160.39775 284.04561 160 283.55469 160 L 276.44531 160 C 275.9544 160 275.55469 160.39775 275.55469 160.88867 L 275.55469 168 C 275.55469 168.49092 275.15693 168.88867 274.66602 168.88867 L 267.55469 168.88867 C 267.39857 168.88867 267.28376 168.984 267.15625 169.05469 A 73.999999 73.999999 0 0 1 270.56055 177.77734 L 274.66602 177.77734 C 275.15693 177.77734 275.55469 178.1751 275.55469 178.66602 L 275.55469 185.77734 C 275.55469 186.26826 275.9544 186.66602 276.44531 186.66602 L 284.44531 186.66602 L 284.44531 178.66602 C 284.44531 178.1751 284.84307 177.77734 285.33398 177.77734 L 292.44531 177.77734 C 292.93622 177.77734 293.33398 178.1751 293.33398 178.66602 L 293.33398 185.77734 C 293.33398 186.26826 292.93622 186.66602 292.44531 186.66602 L 284.44531 186.66602 L 284.44531 203.55469 C 284.44531 204.0456 284.84307 204.44531 285.33398 204.44531 L 292.44531 204.44531 C 292.93622 204.44531 293.33398 204.0456 293.33398 203.55469 L 293.33398 196.44531 C 293.33398 195.9544 293.73175 195.55469 294.22266 195.55469 L 302.22266 195.55469 L 302.22266 187.55469 C 302.22266 187.06377 302.62042 186.66602 303.11133 186.66602 L 319.11133 186.66602 C 319.60224 186.66602 320 187.06377 320 187.55469 L 320 221.33398 C 320 221.82489 320.39776 222.22266 320.88867 222.22266 L 328 222.22266 C 328.49091 222.22266 328.88867 222.62042 328.88867 223.11133 L 328.88867 248 C 328.88867 248.49091 329.28643 248.88867 329.77734 248.88867 L 336.88867 248.88867 C 337.37958 248.88867 337.77734 249.28643 337.77734 249.77734 L 337.77734 256.88867 C 337.77734 257.37958 337.37958 257.77734 336.88867 257.77734 L 329.77734 257.77734 C 329.28643 257.77734 328.88867 258.17511 328.88867 258.66602 L 328.88867 265.77734 C 328.88867 266.26825 328.49091 266.66602 328 266.66602 L 312 266.66602 C 311.50909 266.66602 311.11133 267.06377 311.11133 267.55469 L 311.11133 274.66602 C 311.11133 275.15693 311.50909 275.55469 312 275.55469 L 319.11133 275.55469 C 319.60224 275.55469 320 275.9544 320 276.44531 L 320 284.44531 L 328 284.44531 C 328.49091 284.44531 328.88867 284.04561 328.88867 283.55469 L 328.88867 276.44531 C 328.88867 275.9544 329.28643 275.55469 329.77734 275.55469 L 336.88867 275.55469 C 337.37958 275.55469 337.77734 275.9544 337.77734 276.44531 L 337.77734 293.33398 L 345.77734 293.33398 C 346.26825 293.33398 346.66602 293.73175 346.66602 294.22266 L 346.66602 301.33398 C 346.66602 301.82489 346.26825 302.22266 345.77734 302.22266 L 338.66602 302.22266 C 338.1751 302.22266 337.77734 301.82489 337.77734 301.33398 L 337.77734 293.33398 L 329.77734 293.33398 C 329.28643 293.33398 328.88867 293.73175 328.88867 294.22266 L 328.88867 301.33398 C 328.88867 301.82489 328.49091 302.22266 328 302.22266 L 320.88867 302.22266 C 320.39776 302.22266 320 301.82489 320 301.33398 L 320 284.44531 L 312 284.44531 C 311.50909 284.44531 311.11133 284.84307 311.11133 285.33398 L 311.11133 301.33398 C 311.11133 301.82489 310.71357 302.22266 310.22266 302.22266 L 303.11133 302.22266 C 302.62042 302.22266 302.22266 302.62042 302.22266 303.11133 L 302.22266 319.11133 C 302.22266 319.60224 301.82489 320 301.33398 320 L 285.33398 320 C 284.84307 320 284.44531 319.60224 284.44531 319.11133 L 284.44531 303.11133 C 284.44531 302.62042 284.04561 302.22266 283.55469 302.22266 L 276.44531 302.22266 C 275.9544 302.22266 275.55469 301.82489 275.55469 301.33398 L 275.55469 294.22266 C 275.55469 293.73175 275.9544 293.33398 276.44531 293.33398 L 283.55469 293.33398 C 284.04561 293.33398 284.44531 292.93622 284.44531 292.44531 L 284.44531 284.44531 L 276.44531 284.44531 C 275.9544 284.44531 275.55469 284.04561 275.55469 283.55469 L 275.55469 276.44531 C 275.55469 275.9544 275.15693 275.55469 274.66602 275.55469 L 257.77734 275.55469 L 257.77734 283.55469 C 257.77734 284.04561 258.17511 284.44531 258.66602 284.44531 L 265.77734 284.44531 C 266.26825 284.44531 266.66602 284.84307 266.66602 285.33398 L 266.66602 292.44531 C 266.66602 292.93622 266.26825 293.33398 265.77734 293.33398 L 240.88867 293.33398 C 240.39776 293.33398 240 293.73175 240 294.22266 L 240 301.33398 C 240 301.82489 240.39776 302.22266 240.88867 302.22266 L 265.77734 302.22266 C 266.26825 302.22266 266.66602 302.62042 266.66602 303.11133 L 266.66602 310.22266 C 266.66602 310.71357 267.06377 311.11133 267.55469 311.11133 L 274.66602 311.11133 C 275.15693 311.11133 275.55469 311.50909 275.55469 312 L 275.55469 319.11133 C 275.55469 319.60224 275.15693 320 274.66602 320 L 257.77734 320 L 257.77734 328 C 257.77734 328.49091 258.17511 328.88867 258.66602 328.88867 L 265.77734 328.88867 C 266.26825 328.88867 266.66602 329.28643 266.66602 329.77734 L 266.66602 345.77734 C 266.66602 346.26825 266.26825 346.66602 265.77734 346.66602 L 258.66602 346.66602 C 258.17511 346.66602 257.77734 346.26825 257.77734 345.77734 L 257.77734 338.66602 C 257.77734 338.1751 257.37958 337.77734 256.88867 337.77734 L 248.88867 337.77734 L 248.88867 345.77734 C 248.88867 346.26825 248.49091 346.66602 248 346.66602 L 223.11133 346.66602 C 222.62042 346.66602 222.22266 346.26825 222.22266 345.77734 L 222.22266 338.66602 C 222.22266 338.1751 222.62042 337.77734 223.11133 337.77734 L 230.22266 337.77734 C 230.71357 337.77734 231.11133 337.37958 231.11133 336.88867 L 231.11133 320.88867 C 231.11133 320.39776 231.50909 320 232 320 L 257.77734 320 L 257.77734 312 C 257.77734 311.50909 257.37958 311.11133 256.88867 311.11133 L 232 311.11133 C 231.50909 311.11133 231.11133 310.71357 231.11133 310.22266 L 231.11133 294.22266 C 231.11133 293.73175 230.71357 293.33398 230.22266 293.33398 L 205.33398 293.33398 C 204.84307 293.33398 204.44531 292.93622 204.44531 292.44531 L 204.44531 284.44531 L 196.44531 284.44531 C 195.9544 284.44531 195.55469 284.04561 195.55469 283.55469 L 195.55469 276.44531 C 195.55469 275.9544 195.9544 275.55469 196.44531 275.55469 L 203.55469 275.55469 C 204.0456 275.55469 204.44531 275.9544 204.44531 276.44531 L 204.44531 284.44531 L 212.44531 284.44531 C 212.93623 284.44531 213.33398 284.04561 213.33398 283.55469 L 213.33398 276.44531 C 213.33398 275.9544 213.73175 275.55469 214.22266 275.55469 L 230.22266 275.55469 C 230.71357 275.55469 231.11133 275.15693 231.11133 274.66602 L 231.11133 267.55469 C 231.11133 267.37194 231.01253 267.22914 230.91797 267.08789 A 73.999999 73.999999 0 0 1 200 274 A 73.999999 73.999999 0 0 1 177.77734 270.13086 L 177.77734 274.66602 C 177.77734 275.15693 177.37959 275.55469 176.88867 275.55469 L 169.77734 275.55469 C 169.28642 275.55469 168.88867 275.15693 168.88867 274.66602 L 168.88867 267.01953 A 73.999999 73.999999 0 0 1 167.88281 266.66602 L 143.11133 266.66602 C 142.62041 266.66602 142.22266 266.26825 142.22266 265.77734 L 142.22266 258.66602 C 142.22266 258.17511 142.62041 257.77734 143.11133 257.77734 L 153.7832 257.77734 A 73.999999 73.999999 0 0 1 142.22266 246.2168 L 142.22266 248 C 142.22266 248.49091 141.8249 248.88867 141.33398 248.88867 L 134.22266 248.88867 C 133.73174 248.88867 133.33398 248.49091 133.33398 248 L 133.33398 232.11719 A 73.999999 73.999999 0 0 1 132.98047 231.11133 L 125.33398 231.11133 C 124.84306 231.11133 124.44531 230.71357 124.44531 230.22266 L 124.44531 213.33398 L 116.44531 213.33398 C 115.95439 213.33398 115.55469 213.73175 115.55469 214.22266 L 115.55469 221.33398 C 115.55469 221.82489 115.15694 222.22266 114.66602 222.22266 L 107.55469 222.22266 C 107.06377 222.22266 106.66602 222.62042 106.66602 223.11133 L 106.66602 231.11133 z M 124.44531 213.33398 L 127.50195 213.33398 A 73.999999 73.999999 0 0 1 126 200 A 73.999999 73.999999 0 0 1 126.5 195.55469 L 124.44531 195.55469 L 124.44531 213.33398 z M 124.44531 195.55469 L 124.44531 187.55469 C 124.44531 187.06377 124.04561 186.66602 123.55469 186.66602 L 107.55469 186.66602 C 107.06377 186.66602 106.66602 187.06377 106.66602 187.55469 L 106.66602 204.44531 L 114.66602 204.44531 C 115.15694 204.44531 115.55469 204.0456 115.55469 203.55469 L 115.55469 196.44531 C 115.55469 195.9544 115.95439 195.55469 116.44531 195.55469 L 124.44531 195.55469 z M 106.66602 204.44531 L 98.666016 204.44531 C 98.175096 204.44531 97.777344 204.84307 97.777344 205.33398 L 97.777344 212.44531 C 97.777344 212.93623 98.175096 213.33398 98.666016 213.33398 L 105.77734 213.33398 C 106.26826 213.33398 106.66602 212.93623 106.66602 212.44531 L 106.66602 204.44531 z M 248.88867 337.77734 L 248.88867 329.77734 C 248.88867 329.28643 248.49091 328.88867 248 328.88867 L 240.88867 328.88867 C 240.39776 328.88867 240 329.28643 240 329.77734 L 240 336.88867 C 240 337.37958 240.39776 337.77734 240.88867 337.77734 L 248 337.77734 L 248.88867 337.77734 z M 257.77734 275.55469 L 257.77734 267.55469 C 257.77734 267.06377 257.37958 266.66602 256.88867 266.66602 L 240.88867 266.66602 C 240.39776 266.66602 240 267.06377 240 267.55469 L 240 274.66602 C 240 275.15693 240.39776 275.55469 240.88867 275.55469 L 256.88867 275.55469 L 257.77734 275.55469 z M 284.44531 284.44531 L 292.44531 284.44531 C 292.93622 284.44531 293.33398 284.04561 293.33398 283.55469 L 293.33398 276.44531 C 293.33398 275.9544 293.73175 275.55469 294.22266 275.55469 L 301.33398 275.55469 C 301.82489 275.55469 302.22266 275.15693 302.22266 274.66602 L 302.22266 267.55469 C 302.22266 267.06377 301.82489 266.66602 301.33398 266.66602 L 294.22266 266.66602 C 293.73175 266.66602 293.33398 266.26825 293.33398 265.77734 L 293.33398 258.66602 C 293.33398 258.17511 293.73175 257.77734 294.22266 257.77734 L 310.22266 257.77734 C 310.71357 257.77734 311.11133 257.37958 311.11133 256.88867 L 311.11133 240.88867 C 311.11133 240.39776 310.71357 240 310.22266 240 L 302.22266 240 L 302.22266 248 C 302.22266 248.49091 301.82489 248.88867 301.33398 248.88867 L 294.22266 248.88867 C 293.73175 248.88867 293.33398 248.49091 293.33398 248 L 293.33398 240 L 285.33398 240 C 284.84307 240 284.44531 240.39776 284.44531 240.88867 L 284.44531 256.88867 C 284.44531 257.37958 284.04561 257.77734 283.55469 257.77734 L 276.44531 257.77734 C 275.9544 257.77734 275.55469 257.37958 275.55469 256.88867 L 275.55469 249.77734 C 275.55469 249.28643 275.15693 248.88867 274.66602 248.88867 L 258.66602 248.88867 C 258.17511 248.88867 257.77734 248.49091 257.77734 248 L 257.77734 246.2168 A 73.999999 73.999999 0 0 1 248.88867 255.10547 L 248.88867 256.88867 C 248.88867 257.37958 249.28643 257.77734 249.77734 257.77734 L 265.77734 257.77734 C 266.26825 257.77734 266.66602 258.17511 266.66602 258.66602 L 266.66602 265.77734 C 266.66602 266.26825 267.06377 266.66602 267.55469 266.66602 L 283.55469 266.66602 C 284.04561 266.66602 284.44531 267.06377 284.44531 267.55469 L 284.44531 284.44531 z M 293.33398 240 L 301.33398 240 L 302.22266 240 L 302.22266 232 C 302.22266 231.50909 302.62042 231.11133 303.11133 231.11133 L 310.22266 231.11133 C 310.71357 231.11133 311.11133 230.71357 311.11133 230.22266 L 311.11133 223.11133 C 311.11133 222.62042 310.71357 222.22266 310.22266 222.22266 L 293.33398 222.22266 L 293.33398 240 z M 293.33398 222.22266 L 293.33398 214.22266 C 293.33398 213.73175 292.93622 213.33398 292.44531 213.33398 L 285.33398 213.33398 C 284.84307 213.33398 284.44531 213.73175 284.44531 214.22266 L 284.44531 222.22266 L 292.44531 222.22266 L 293.33398 222.22266 z M 284.44531 222.22266 L 276.44531 222.22266 C 275.9544 222.22266 275.55469 222.62042 275.55469 223.11133 L 275.55469 230.22266 C 275.55469 230.71357 275.9544 231.11133 276.44531 231.11133 L 283.55469 231.11133 C 284.04561 231.11133 284.44531 230.71357 284.44531 230.22266 L 284.44531 222.22266 z M 302.22266 195.55469 L 302.22266 203.55469 C 302.22266 204.0456 302.62042 204.44531 303.11133 204.44531 L 310.22266 204.44531 C 310.71357 204.44531 311.11133 204.0456 311.11133 203.55469 L 311.11133 196.44531 C 311.11133 195.9544 310.71357 195.55469 310.22266 195.55469 L 302.22266 195.55469 z M 373.33398 186.66602 L 373.33398 194.66602 C 373.33398 195.15693 373.73175 195.55469 374.22266 195.55469 L 390.22266 195.55469 C 390.71357 195.55469 391.11133 195.9544 391.11133 196.44531 L 391.11133 203.55469 C 391.11133 204.0456 390.71357 204.44531 390.22266 204.44531 L 383.11133 204.44531 C 382.62042 204.44531 382.22266 204.84307 382.22266 205.33398 L 382.22266 212.44531 C 382.22266 212.93623 382.62042 213.33398 383.11133 213.33398 L 390.22266 213.33398 C 390.71357 213.33398 391.11133 213.73175 391.11133 214.22266 L 391.11133 221.33398 C 391.11133 221.82489 390.71357 222.22266 390.22266 222.22266 L 374.22266 222.22266 C 373.73175 222.22266 373.33398 222.62042 373.33398 223.11133 L 373.33398 239.11133 C 373.33398 239.60224 373.73175 240 374.22266 240 L 390.22266 240 C 390.71357 240 391.11133 239.60224 391.11133 239.11133 L 391.11133 232 C 391.11133 231.50909 391.50909 231.11133 392 231.11133 L 399.11133 231.11133 C 399.60224 231.11133 400 230.71357 400 230.22266 L 400 178.66602 C 400 178.1751 399.60224 177.77734 399.11133 177.77734 L 383.11133 177.77734 C 382.62042 177.77734 382.22266 178.1751 382.22266 178.66602 L 382.22266 185.77734 C 382.22266 186.26826 381.82489 186.66602 381.33398 186.66602 L 373.33398 186.66602 z M 364.44531 257.77734 L 364.44531 265.77734 C 364.44531 266.26825 364.04561 266.66602 363.55469 266.66602 L 356.44531 266.66602 C 355.9544 266.66602 355.55469 267.06377 355.55469 267.55469 L 355.55469 284.44531 L 363.55469 284.44531 C 364.04561 284.44531 364.44531 284.84307 364.44531 285.33398 L 364.44531 292.44531 C 364.44531 292.93622 364.84307 293.33398 365.33398 293.33398 L 372.44531 293.33398 C 372.93622 293.33398 373.33398 292.93622 373.33398 292.44531 L 373.33398 267.55469 C 373.33398 267.06377 373.73175 266.66602 374.22266 266.66602 L 381.33398 266.66602 C 381.82489 266.66602 382.22266 267.06377 382.22266 267.55469 L 382.22266 302.22266 L 390.22266 302.22266 C 390.71357 302.22266 391.11133 302.62042 391.11133 303.11133 L 391.11133 310.22266 C 391.11133 310.71357 391.50909 311.11133 392 311.11133 L 399.11133 311.11133 C 399.60224 311.11133 400 310.71357 400 310.22266 L 400 294.22266 C 400 293.73175 399.60224 293.33398 399.11133 293.33398 L 392 293.33398 C 391.50909 293.33398 391.11133 292.93622 391.11133 292.44531 L 391.11133 276.44531 C 391.11133 275.9544 391.50909 275.55469 392 275.55469 L 399.11133 275.55469 C 399.60224 275.55469 400 275.15693 400 274.66602 L 400 267.55469 C 400 267.06377 399.60224 266.66602 399.11133 266.66602 L 392 266.66602 C 391.50909 266.66602 391.11133 266.26825 391.11133 265.77734 L 391.11133 257.77734 L 364.44531 257.77734 z M 391.11133 257.77734 L 399.11133 257.77734 C 399.60224 257.77734 400 257.37958 400 256.88867 L 400 249.77734 C 400 249.28643 399.60224 248.88867 399.11133 248.88867 L 392 248.88867 C 391.50909 248.88867 391.11133 249.28643 391.11133 249.77734 L 391.11133 257.77734 z M 382.22266 302.22266 L 374.22266 302.22266 C 373.73175 302.22266 373.33398 302.62042 373.33398 303.11133 L 373.33398 311.11133 L 381.33398 311.11133 C 381.82489 311.11133 382.22266 310.71357 382.22266 310.22266 L 382.22266 302.22266 z M 373.33398 328.88867 L 373.33398 337.77734 L 381.33398 337.77734 L 382.22266 337.77734 L 382.22266 328.88867 L 373.33398 328.88867 z M 382.22266 328.88867 L 390.22266 328.88867 L 391.11133 328.88867 L 391.11133 320.88867 C 391.11133 320.39776 390.71357 320 390.22266 320 L 383.11133 320 C 382.62042 320 382.22266 320.39776 382.22266 320.88867 L 382.22266 328.88867 z M 391.11133 328.88867 L 391.11133 337.77734 L 399.11133 337.77734 C 399.60224 337.77734 400 337.37958 400 336.88867 L 400 329.77734 C 400 329.28643 399.60224 328.88867 399.11133 328.88867 L 391.11133 328.88867 z M 391.11133 337.77734 L 382.22266 337.77734 L 382.22266 354.66602 C 382.22266 355.15693 382.62042 355.55469 383.11133 355.55469 L 399.11133 355.55469 C 399.60224 355.55469 400 355.15693 400 354.66602 L 400 347.55469 C 400 347.06378 399.60224 346.66602 399.11133 346.66602 L 392 346.66602 C 391.50909 346.66602 391.11133 346.26825 391.11133 345.77734 L 391.11133 337.77734 z M 364.44531 391.11133 L 364.44531 399.11133 C 364.44531 399.60224 364.84307 400 365.33398 400 L 372.44531 400 C 372.93622 400 373.33398 399.60224 373.33398 399.11133 L 373.33398 392 C 373.33398 391.50909 372.93622 391.11133 372.44531 391.11133 L 364.44531 391.11133 z M 355.55469 391.11133 L 320 391.11133 L 320 399.11133 C 320 399.60224 320.39776 400 320.88867 400 L 354.66602 400 C 355.15693 400 355.55469 399.60224 355.55469 399.11133 L 355.55469 391.11133 z M 302.22266 391.11133 L 293.33398 391.11133 L 293.33398 399.11133 C 293.33398 399.60224 293.73175 400 294.22266 400 L 301.33398 400 C 301.82489 400 302.22266 399.60224 302.22266 399.11133 L 302.22266 391.11133 z M 302.22266 355.55469 L 294.22266 355.55469 C 293.73175 355.55469 293.33398 355.15693 293.33398 354.66602 L 293.33398 347.55469 C 293.33398 347.06378 292.93622 346.66602 292.44531 346.66602 L 285.33398 346.66602 C 284.84307 346.66602 284.44531 347.06378 284.44531 347.55469 L 284.44531 363.55469 C 284.44531 364.04561 284.84307 364.44531 285.33398 364.44531 L 301.33398 364.44531 C 301.82489 364.44531 302.22266 364.04561 302.22266 363.55469 L 302.22266 355.55469 z M 151.11133 382.22266 L 151.11133 374.22266 C 151.11133 373.73175 150.71358 373.33398 150.22266 373.33398 L 134.22266 373.33398 C 133.73174 373.33398 133.33398 372.93622 133.33398 372.44531 L 133.33398 356.44531 C 133.33398 355.9544 133.73174 355.55469 134.22266 355.55469 L 141.33398 355.55469 C 141.8249 355.55469 142.22266 355.15693 142.22266 354.66602 L 142.22266 346.66602 L 106.66602 346.66602 L 106.66602 354.66602 C 106.66602 355.15693 106.26826 355.55469 105.77734 355.55469 L 98.666016 355.55469 C 98.175096 355.55469 97.777344 355.9544 97.777344 356.44531 L 97.777344 363.55469 C 97.777344 364.04561 98.175096 364.44531 98.666016 364.44531 L 114.66602 364.44531 C 115.15694 364.44531 115.55469 364.84307 115.55469 365.33398 L 115.55469 381.33398 C 115.55469 381.82489 115.15694 382.22266 114.66602 382.22266 L 106.66602 382.22266 L 106.66602 390.22266 C 106.66602 390.71357 107.06377 391.11133 107.55469 391.11133 L 132.44531 391.11133 C 132.93623 391.11133 133.33398 390.71357 133.33398 390.22266 L 133.33398 383.11133 C 133.33398 382.62042 133.73174 382.22266 134.22266 382.22266 L 151.11133 382.22266 z M 106.66602 382.22266 L 106.66602 374.22266 C 106.66602 373.73175 106.26826 373.33398 105.77734 373.33398 L 98.666016 373.33398 C 98.175096 373.33398 97.777344 373.73175 97.777344 374.22266 L 97.777344 382.22266 L 105.77734 382.22266 L 106.66602 382.22266 z M 97.777344 382.22266 L 88.888672 382.22266 L 88.888672 399.11133 C 88.888672 399.60224 89.286424 400 89.777344 400 L 96.888672 400 C 97.379591 400 97.777344 399.60224 97.777344 399.11133 L 97.777344 382.22266 z M 88.888672 382.22266 L 88.888672 374.22266 C 88.888672 373.73175 88.49092 373.33398 88 373.33398 L 80 373.33398 L 80 381.33398 C 80 381.82489 80.397752 382.22266 80.888672 382.22266 L 88 382.22266 L 88.888672 382.22266 z M 80 373.33398 L 80 365.33398 C 80 364.84307 79.602248 364.44531 79.111328 364.44531 L 72 364.44531 C 71.50908 364.44531 71.111328 364.84307 71.111328 365.33398 L 71.111328 372.44531 C 71.111328 372.93622 71.50908 373.33398 72 373.33398 L 79.111328 373.33398 L 80 373.33398 z M 106.66602 346.66602 L 106.66602 328.88867 L 97.777344 328.88867 L 97.777344 336.88867 C 97.777344 337.37958 97.379591 337.77734 96.888672 337.77734 L 88.888672 337.77734 L 88.888672 345.77734 C 88.888672 346.26825 89.286424 346.66602 89.777344 346.66602 L 105.77734 346.66602 L 106.66602 346.66602 z M 62.222656 320 L 54.222656 320 C 53.731737 320 53.333984 320.39776 53.333984 320.88867 L 53.333984 328 C 53.333984 328.49091 53.731737 328.88867 54.222656 328.88867 L 61.333984 328.88867 C 61.824904 328.88867 62.222656 328.49091 62.222656 328 L 62.222656 320 z M 62.222656 311.11133 L 62.222656 303.11133 C 62.222656 302.62042 61.824904 302.22266 61.333984 302.22266 L 53.333984 302.22266 L 53.333984 310.22266 C 53.333984 310.71357 53.731737 311.11133 54.222656 311.11133 L 61.333984 311.11133 L 62.222656 311.11133 z M 53.333984 302.22266 L 53.333984 293.33398 L 45.333984 293.33398 C 44.843065 293.33398 44.445312 293.73175 44.445312 294.22266 L 44.445312 302.22266 L 52.445312 302.22266 L 53.333984 302.22266 z M 44.445312 302.22266 L 35.554688 302.22266 L 35.554688 310.22266 C 35.554687 310.71357 35.156935 311.11133 34.666016 311.11133 L 9.7773438 311.11133 C 9.2864242 311.11133 8.8886719 311.50909 8.8886719 312 L 8.8886719 320 L 25.777344 320 C 26.268263 320 26.666016 320.39776 26.666016 320.88867 L 26.666016 328 C 26.666016 328.49091 27.063768 328.88867 27.554688 328.88867 L 43.554688 328.88867 C 44.045607 328.88867 44.445312 328.49091 44.445312 328 L 44.445312 302.22266 z M 8.8886719 320 L 0.88867188 320 C 0.39775237 320 0 320.39776 0 320.88867 L 0 328 C -7.4014794e-17 328.49091 0.39775237 328.88867 0.88867188 328.88867 L 8 328.88867 C 8.4909195 328.88867 8.8886719 328.49091 8.8886719 328 L 8.8886719 320 z M 35.554688 302.22266 L 35.554688 294.22266 C 35.554687 293.73175 35.156935 293.33398 34.666016 293.33398 L 27.554688 293.33398 C 27.063768 293.33398 26.666016 292.93622 26.666016 292.44531 L 26.666016 275.55469 L 18.666016 275.55469 C 18.175096 275.55469 17.777344 275.15693 17.777344 274.66602 L 17.777344 266.66602 L 9.7773438 266.66602 C 9.2864242 266.66602 8.8886719 267.06377 8.8886719 267.55469 L 8.8886719 283.55469 C 8.8886719 284.04561 9.2864242 284.44531 9.7773438 284.44531 L 16.888672 284.44531 C 17.379591 284.44531 17.777344 284.84307 17.777344 285.33398 L 17.777344 301.33398 C 17.777344 301.82489 18.175096 302.22266 18.666016 302.22266 L 34.666016 302.22266 L 35.554688 302.22266 z M 17.777344 266.66602 L 25.777344 266.66602 L 26.666016 266.66602 L 26.666016 257.77734 L 17.777344 257.77734 L 17.777344 266.66602 z M 26.666016 257.77734 L 43.554688 257.77734 L 44.445312 257.77734 L 44.445312 249.77734 C 44.445313 249.28643 44.045607 248.88867 43.554688 248.88867 L 27.554688 248.88867 C 27.063768 248.88867 26.666016 249.28643 26.666016 249.77734 L 26.666016 257.77734 z M 44.445312 257.77734 L 44.445312 265.77734 C 44.445313 266.26825 44.843065 266.66602 45.333984 266.66602 L 52.445312 266.66602 L 53.333984 266.66602 L 53.333984 257.77734 L 44.445312 257.77734 z M 53.333984 257.77734 L 61.333984 257.77734 C 61.824904 257.77734 62.222656 258.17511 62.222656 258.66602 L 62.222656 265.77734 C 62.222656 266.26825 61.824904 266.66602 61.333984 266.66602 L 53.333984 266.66602 L 53.333984 275.55469 L 61.333984 275.55469 C 61.824904 275.55469 62.222656 275.9544 62.222656 276.44531 L 62.222656 283.55469 C 62.222656 284.04561 61.824904 284.44531 61.333984 284.44531 L 53.333984 284.44531 L 53.333984 293.33398 L 70.222656 293.33398 L 71.111328 293.33398 L 71.111328 285.33398 C 71.111328 284.84307 71.50908 284.44531 72 284.44531 L 80 284.44531 L 80 276.44531 C 80 275.9544 80.397752 275.55469 80.888672 275.55469 L 96.888672 275.55469 C 97.379591 275.55469 97.777344 275.15693 97.777344 274.66602 L 97.777344 267.55469 C 97.777344 267.06377 98.175096 266.66602 98.666016 266.66602 L 114.66602 266.66602 C 115.15694 266.66602 115.55469 266.26825 115.55469 265.77734 L 115.55469 249.77734 C 115.55469 249.28643 115.15694 248.88867 114.66602 248.88867 L 107.55469 248.88867 C 107.06377 248.88867 106.66602 249.28643 106.66602 249.77734 L 106.66602 256.88867 C 106.66602 257.37958 106.26826 257.77734 105.77734 257.77734 L 88.888672 257.77734 L 88.888672 265.77734 C 88.888672 266.26825 88.49092 266.66602 88 266.66602 L 72 266.66602 C 71.50908 266.66602 71.111328 266.26825 71.111328 265.77734 L 71.111328 249.77734 C 71.111328 249.28643 71.50908 248.88867 72 248.88867 L 80 248.88867 L 80 240 L 62.222656 240 L 62.222656 248 C 62.222656 248.49091 61.824904 248.88867 61.333984 248.88867 L 54.222656 248.88867 C 53.731737 248.88867 53.333984 249.28643 53.333984 249.77734 L 53.333984 257.77734 z M 62.222656 240 L 62.222656 231.11133 L 53.333984 231.11133 L 53.333984 239.11133 C 53.333984 239.60224 53.731737 240 54.222656 240 L 61.333984 240 L 62.222656 240 z M 80 240 L 88 240 L 88.888672 240 L 88.888672 231.11133 L 80 231.11133 L 80 240 z M 88.888672 240 L 88.888672 248.88867 L 96.888672 248.88867 C 97.379591 248.88867 97.777344 248.49091 97.777344 248 L 97.777344 240 L 88.888672 240 z M 88.888672 248.88867 L 80 248.88867 L 80 256.88867 C 80 257.37958 80.397752 257.77734 80.888672 257.77734 L 88 257.77734 L 88.888672 257.77734 L 88.888672 248.88867 z M 53.333984 284.44531 L 53.333984 275.55469 L 45.333984 275.55469 C 44.843065 275.55469 44.445312 275.9544 44.445312 276.44531 L 44.445312 283.55469 C 44.445312 284.04561 44.843065 284.44531 45.333984 284.44531 L 52.445312 284.44531 L 53.333984 284.44531 z M 26.666016 266.66602 L 26.666016 275.55469 L 34.666016 275.55469 C 35.156935 275.55469 35.554688 275.15693 35.554688 274.66602 L 35.554688 267.55469 C 35.554688 267.06377 35.156935 266.66602 34.666016 266.66602 L 26.666016 266.66602 z M 17.777344 160 L 17.777344 143.11133 C 17.777344 142.62041 17.379591 142.22266 16.888672 142.22266 L 9.7773438 142.22266 C 9.2864242 142.22266 8.8886719 141.8249 8.8886719 141.33398 L 8.8886719 134.22266 C 8.8886719 133.73174 9.2864242 133.33398 9.7773438 133.33398 L 16.888672 133.33398 C 17.379591 133.33398 17.777344 132.93623 17.777344 132.44531 L 17.777344 116.44531 C 17.777344 115.95439 17.379591 115.55469 16.888672 115.55469 L 9.7773438 115.55469 C 9.2864242 115.55469 8.8886719 115.15694 8.8886719 114.66602 L 8.8886719 106.66602 L 0.88867188 106.66602 C 0.39775237 106.66602 0 107.06377 0 107.55469 L 0 150.22266 C -7.4014794e-17 150.71358 0.39775237 151.11133 0.88867188 151.11133 L 8 151.11133 C 8.4909195 151.11133 8.8886719 151.50908 8.8886719 152 L 8.8886719 159.11133 C 8.8886719 159.60225 9.2864242 160 9.7773438 160 L 16.888672 160 L 17.777344 160 z M 8.8886719 97.777344 L 8.8886719 88.888672 L 0.88867188 88.888672 C 0.39775237 88.888672 0 89.286424 0 89.777344 L 0 96.888672 C -7.4014794e-17 97.379591 0.39775237 97.777344 0.88867188 97.777344 L 8 97.777344 L 8.8886719 97.777344 z M 8.8886719 88.888672 L 25.777344 88.888672 C 26.268263 88.888672 26.666016 88.49092 26.666016 88 L 26.666016 80 L 9.7773438 80 C 9.2864242 80 8.8886719 80.397752 8.8886719 80.888672 L 8.8886719 88.888672 z M 26.666016 80 L 34.666016 80 C 35.156935 80 35.554688 79.602248 35.554688 79.111328 L 35.554688 72 C 35.554687 71.50908 35.156935 71.111328 34.666016 71.111328 L 27.554688 71.111328 C 27.063768 71.111328 26.666016 71.50908 26.666016 72 L 26.666016 80 z M 62.222656 115.55469 L 62.222656 124.44531 L 79.111328 124.44531 L 80 124.44531 L 80 116.44531 C 80 115.95439 79.602248 115.55469 79.111328 115.55469 L 62.222656 115.55469 z M 80 142.22266 L 80 133.33398 L 72 133.33398 C 71.50908 133.33398 71.111328 133.73174 71.111328 134.22266 L 71.111328 141.33398 C 71.111328 141.8249 71.50908 142.22266 72 142.22266 L 79.111328 142.22266 L 80 142.22266 z M 124.44531 80 L 124.44531 88.888672 L 132.44531 88.888672 L 133.33398 88.888672 L 133.33398 80.888672 C 133.33398 80.397752 132.93623 80 132.44531 80 L 124.44531 80 z M 338.66602 0 C 338.1751 -7.4014794e-17 337.77734 0.39775237 337.77734 0.88867188 L 337.77734 61.333984 C 337.77734 61.824904 338.1751 62.222656 338.66602 62.222656 L 399.11133 62.222656 C 399.60224 62.222656 400 61.824904 400 61.333984 L 400 0.88867188 C 400 0.39775237 399.60224 4.7759905e-17 399.11133 0 L 338.66602 0 z M 9.7773438 8.8886719 L 52.445312 8.8886719 C 52.936232 8.8886719 53.333984 9.2864242 53.333984 9.7773438 L 53.333984 52.445312 C 53.333984 52.936232 52.936232 53.333984 52.445312 53.333984 L 9.7773438 53.333984 C 9.2864242 53.333984 8.8886719 52.936232 8.8886719 52.445312 L 8.8886719 9.7773438 C 8.8886719 9.2864242 9.2864242 8.8886719 9.7773438 8.8886719 z M 347.55469 8.8886719 L 390.22266 8.8886719 C 390.71357 8.8886719 391.11133 9.2864242 391.11133 9.7773438 L 391.11133 52.445312 C 391.11133 52.936232 390.71357 53.333984 390.22266 53.333984 L 347.55469 53.333984 C 347.06378 53.333984 346.66602 52.936232 346.66602 52.445312 L 346.66602 9.7773438 C 346.66602 9.2864242 347.06378 8.8886719 347.55469 8.8886719 z M 18.666016 17.777344 C 18.175096 17.777344 17.777344 18.175096 17.777344 18.666016 L 17.777344 43.554688 C 17.777344 44.045607 18.175096 44.445312 18.666016 44.445312 L 43.554688 44.445312 C 44.045607 44.445313 44.445312 44.045607 44.445312 43.554688 L 44.445312 18.666016 C 44.445313 18.175096 44.045607 17.777344 43.554688 17.777344 L 18.666016 17.777344 z M 356.44531 17.777344 C 355.9544 17.777344 355.55469 18.175096 355.55469 18.666016 L 355.55469 43.554688 C 355.55469 44.045607 355.9544 44.445312 356.44531 44.445312 L 381.33398 44.445312 C 381.82489 44.445313 382.22266 44.045607 382.22266 43.554688 L 382.22266 18.666016 C 382.22266 18.175096 381.82489 17.777344 381.33398 17.777344 L 356.44531 17.777344 z M 267.55469 35.554688 C 267.06377 35.554687 266.66602 35.954393 266.66602 36.445312 L 266.66602 61.333984 C 266.66602 61.824904 267.06377 62.222656 267.55469 62.222656 L 274.66602 62.222656 C 275.15693 62.222656 275.55469 61.824904 275.55469 61.333984 L 275.55469 36.445312 C 275.55469 35.954393 275.15693 35.554688 274.66602 35.554688 L 267.55469 35.554688 z M 187.55469 44.445312 L 212.44531 44.445312 C 212.93623 44.445312 213.33398 44.843065 213.33398 45.333984 L 213.33398 70.222656 C 213.33398 70.713576 212.93623 71.111328 212.44531 71.111328 L 187.55469 71.111328 C 187.06377 71.111328 186.66602 70.713576 186.66602 70.222656 L 186.66602 45.333984 C 186.66602 44.843065 187.06377 44.445312 187.55469 44.445312 z M 196.44531 53.333984 C 195.9544 53.333984 195.55469 53.731737 195.55469 54.222656 L 195.55469 61.333984 C 195.55469 61.824904 195.9544 62.222656 196.44531 62.222656 L 203.55469 62.222656 C 204.0456 62.222656 204.44531 61.824904 204.44531 61.333984 L 204.44531 54.222656 C 204.44531 53.731737 204.0456 53.333984 203.55469 53.333984 L 196.44531 53.333984 z M 303.11133 53.333984 C 302.62042 53.333984 302.22266 53.731737 302.22266 54.222656 L 302.22266 61.333984 C 302.22266 61.824904 302.62042 62.222656 303.11133 62.222656 L 310.22266 62.222656 L 311.11133 62.222656 L 311.11133 54.222656 C 311.11133 53.731737 310.71357 53.333984 310.22266 53.333984 L 303.11133 53.333984 z M 311.11133 62.222656 L 311.11133 79.111328 C 311.11133 79.602248 311.50909 80 312 80 L 319.11133 80 C 319.60224 80 320 79.602248 320 79.111328 L 320 62.222656 L 311.11133 62.222656 z M 320 62.222656 L 328 62.222656 C 328.49091 62.222656 328.88867 61.824904 328.88867 61.333984 L 328.88867 54.222656 C 328.88867 53.731737 328.49091 53.333984 328 53.333984 L 320.88867 53.333984 C 320.39776 53.333984 320 53.731737 320 54.222656 L 320 62.222656 z M 54.222656 71.111328 C 53.731737 71.111328 53.333984 71.50908 53.333984 72 L 53.333984 79.111328 C 53.333984 79.602248 53.731737 80 54.222656 80 L 61.333984 80 C 61.824904 80 62.222656 79.602248 62.222656 79.111328 L 62.222656 72 C 62.222656 71.50908 61.824904 71.111328 61.333984 71.111328 L 54.222656 71.111328 z M 329.77734 80 C 329.28643 80 328.88867 80.397752 328.88867 80.888672 L 328.88867 88 C 328.88867 88.49092 329.28643 88.888672 329.77734 88.888672 L 336.88867 88.888672 C 337.37958 88.888672 337.77734 88.49092 337.77734 88 L 337.77734 80.888672 C 337.77734 80.397752 337.37958 80 336.88867 80 L 329.77734 80 z M 187.55469 97.777344 L 194.66602 97.777344 C 195.15693 97.777344 195.55469 98.175096 195.55469 98.666016 L 195.55469 105.77734 C 195.55469 106.26826 195.15693 106.66602 194.66602 106.66602 L 187.55469 106.66602 C 187.06377 106.66602 186.66602 106.26826 186.66602 105.77734 L 186.66602 98.666016 C 186.66602 98.175096 187.06377 97.777344 187.55469 97.777344 z M 152 106.66602 C 151.50908 106.66602 151.11133 107.06377 151.11133 107.55469 L 151.11133 132.44531 C 151.11133 132.93623 151.50908 133.33398 152 133.33398 L 167.88281 133.33398 A 73.999999 73.999999 0 0 1 168.88867 132.98047 L 168.88867 125.33398 C 168.88867 124.84306 168.49092 124.44531 168 124.44531 L 160.88867 124.44531 C 160.39775 124.44531 160 124.04561 160 123.55469 L 160 107.55469 C 160 107.06377 159.60225 106.66602 159.11133 106.66602 L 152 106.66602 z M 0.88867188 168.88867 C 0.39775237 168.88867 0 169.28642 0 169.77734 L 0 176.88867 C -7.4014794e-17 177.37959 0.39775237 177.77734 0.88867188 177.77734 L 8 177.77734 L 8.8886719 177.77734 L 8.8886719 169.77734 C 8.8886719 169.28642 8.4909195 168.88867 8 168.88867 L 0.88867188 168.88867 z M 8.8886719 177.77734 L 8.8886719 185.77734 C 8.8886719 186.26826 9.2864242 186.66602 9.7773438 186.66602 L 16.888672 186.66602 C 17.379591 186.66602 17.777344 186.26826 17.777344 185.77734 L 17.777344 178.66602 C 17.777344 178.1751 17.379591 177.77734 16.888672 177.77734 L 8.8886719 177.77734 z M 36.445312 168.88867 L 70.222656 168.88867 C 70.713576 168.88867 71.111328 169.28642 71.111328 169.77734 L 71.111328 176.88867 C 71.111328 177.37959 70.713576 177.77734 70.222656 177.77734 L 36.445312 177.77734 C 35.954393 177.77734 35.554688 177.37959 35.554688 176.88867 L 35.554688 169.77734 C 35.554687 169.28642 35.954393 168.88867 36.445312 168.88867 z M 45.333984 186.66602 L 70.222656 186.66602 C 70.713576 186.66602 71.111328 187.06377 71.111328 187.55469 L 71.111328 212.44531 C 71.111328 212.93623 70.713576 213.33398 70.222656 213.33398 L 45.333984 213.33398 C 44.843065 213.33398 44.445312 212.93623 44.445312 212.44531 L 44.445312 187.55469 C 44.445312 187.06377 44.843065 186.66602 45.333984 186.66602 z M 329.77734 186.66602 L 354.66602 186.66602 C 355.15693 186.66602 355.55469 187.06377 355.55469 187.55469 L 355.55469 212.44531 C 355.55469 212.93623 355.15693 213.33398 354.66602 213.33398 L 329.77734 213.33398 C 329.28643 213.33398 328.88867 212.93623 328.88867 212.44531 L 328.88867 187.55469 C 328.88867 187.06377 329.28643 186.66602 329.77734 186.66602 z M 9.7773438 195.55469 C 9.2864242 195.55469 8.8886719 195.9544 8.8886719 196.44531 L 8.8886719 204.44531 L 16.888672 204.44531 C 17.379591 204.44531 17.777344 204.0456 17.777344 203.55469 L 17.777344 196.44531 C 17.777344 195.9544 17.379591 195.55469 16.888672 195.55469 L 9.7773438 195.55469 z M 8.8886719 204.44531 L 0.88867188 204.44531 C 0.39775237 204.44531 0 204.84307 0 205.33398 L 0 212.44531 C -7.4014794e-17 212.93623 0.39775237 213.33398 0.88867188 213.33398 L 8 213.33398 C 8.4909195 213.33398 8.8886719 212.93623 8.8886719 212.44531 L 8.8886719 204.44531 z M 54.222656 195.55469 C 53.731737 195.55469 53.333984 195.9544 53.333984 196.44531 L 53.333984 203.55469 C 53.333984 204.0456 53.731737 204.44531 54.222656 204.44531 L 61.333984 204.44531 C 61.824904 204.44531 62.222656 204.0456 62.222656 203.55469 L 62.222656 196.44531 C 62.222656 195.9544 61.824904 195.55469 61.333984 195.55469 L 54.222656 195.55469 z M 273.82422 195.55469 A 73.999999 73.999999 0 0 1 274 200 A 73.999999 73.999999 0 0 1 272.49805 213.33398 L 274.66602 213.33398 C 275.15693 213.33398 275.55469 212.93623 275.55469 212.44531 L 275.55469 196.44531 C 275.55469 195.9544 275.15693 195.55469 274.66602 195.55469 L 273.82422 195.55469 z M 338.66602 195.55469 C 338.1751 195.55469 337.77734 195.9544 337.77734 196.44531 L 337.77734 203.55469 C 337.77734 204.0456 338.1751 204.44531 338.66602 204.44531 L 345.77734 204.44531 C 346.26825 204.44531 346.66602 204.0456 346.66602 203.55469 L 346.66602 196.44531 C 346.66602 195.9544 346.26825 195.55469 345.77734 195.55469 L 338.66602 195.55469 z M 134.22266 275.55469 L 141.33398 275.55469 C 141.8249 275.55469 142.22266 275.9544 142.22266 276.44531 L 142.22266 283.55469 C 142.22266 284.04561 142.62041 284.44531 143.11133 284.44531 L 150.22266 284.44531 C 150.71358 284.44531 151.11133 284.84307 151.11133 285.33398 L 151.11133 292.44531 C 151.11133 292.93622 151.50908 293.33398 152 293.33398 L 160 293.33398 L 160 285.33398 C 160 284.84307 160.39775 284.44531 160.88867 284.44531 L 168 284.44531 C 168.49092 284.44531 168.88867 284.84307 168.88867 285.33398 L 168.88867 292.44531 C 168.88867 292.93622 168.49092 293.33398 168 293.33398 L 160 293.33398 L 160 310.22266 C 160 310.71357 159.60225 311.11133 159.11133 311.11133 L 152 311.11133 C 151.50908 311.11133 151.11133 310.71357 151.11133 310.22266 L 151.11133 303.11133 C 151.11133 302.62042 150.71358 302.22266 150.22266 302.22266 L 143.11133 302.22266 C 142.62041 302.22266 142.22266 301.82489 142.22266 301.33398 L 142.22266 294.22266 C 142.22266 293.73175 141.8249 293.33398 141.33398 293.33398 L 125.33398 293.33398 C 124.84306 293.33398 124.44531 292.93622 124.44531 292.44531 L 124.44531 285.33398 C 124.44531 284.84307 124.84306 284.44531 125.33398 284.44531 L 132.44531 284.44531 C 132.93623 284.44531 133.33398 284.04561 133.33398 283.55469 L 133.33398 276.44531 C 133.33398 275.9544 133.73174 275.55469 134.22266 275.55469 z M 178.66602 284.44531 L 185.77734 284.44531 C 186.26826 284.44531 186.66602 284.84307 186.66602 285.33398 L 186.66602 292.44531 C 186.66602 292.93622 187.06377 293.33398 187.55469 293.33398 L 194.66602 293.33398 C 195.15693 293.33398 195.55469 293.73175 195.55469 294.22266 L 195.55469 302.22266 L 212.44531 302.22266 C 212.93623 302.22266 213.33398 302.62042 213.33398 303.11133 L 213.33398 310.22266 C 213.33398 310.71357 212.93623 311.11133 212.44531 311.11133 L 196.44531 311.11133 C 195.9544 311.11133 195.55469 310.71357 195.55469 310.22266 L 195.55469 302.22266 L 187.55469 302.22266 C 187.06377 302.22266 186.66602 302.62042 186.66602 303.11133 L 186.66602 310.22266 C 186.66602 310.71357 186.26826 311.11133 185.77734 311.11133 L 169.77734 311.11133 C 169.28642 311.11133 168.88867 310.71357 168.88867 310.22266 L 168.88867 303.11133 C 168.88867 302.62042 169.28642 302.22266 169.77734 302.22266 L 176.88867 302.22266 C 177.37959 302.22266 177.77734 301.82489 177.77734 301.33398 L 177.77734 285.33398 C 177.77734 284.84307 178.1751 284.44531 178.66602 284.44531 z M 125.33398 311.11133 L 141.33398 311.11133 C 141.8249 311.11133 142.22266 311.50909 142.22266 312 L 142.22266 319.11133 C 142.22266 319.60224 141.8249 320 141.33398 320 L 125.33398 320 C 124.84306 320 124.44531 319.60224 124.44531 319.11133 L 124.44531 312 C 124.44531 311.50909 124.84306 311.11133 125.33398 311.11133 z M 152 320 L 159.11133 320 C 159.60225 320 160 320.39776 160 320.88867 L 160 328 C 160 328.49091 160.39775 328.88867 160.88867 328.88867 L 168.88867 328.88867 L 168.88867 320.88867 C 168.88867 320.39776 169.28642 320 169.77734 320 L 176.88867 320 C 177.37959 320 177.77734 320.39776 177.77734 320.88867 L 177.77734 328 C 177.77734 328.49091 177.37959 328.88867 176.88867 328.88867 L 168.88867 328.88867 L 168.88867 337.77734 L 176.88867 337.77734 C 177.37959 337.77734 177.77734 338.1751 177.77734 338.66602 L 177.77734 345.77734 C 177.77734 346.26825 177.37959 346.66602 176.88867 346.66602 L 169.77734 346.66602 C 169.28642 346.66602 168.88867 346.26825 168.88867 345.77734 L 168.88867 337.77734 L 152 337.77734 C 151.50908 337.77734 151.11133 337.37958 151.11133 336.88867 L 151.11133 320.88867 C 151.11133 320.39776 151.50908 320 152 320 z M 187.55469 328.88867 L 212.44531 328.88867 C 212.93623 328.88867 213.33398 329.28643 213.33398 329.77734 L 213.33398 354.66602 C 213.33398 355.15693 212.93623 355.55469 212.44531 355.55469 L 187.55469 355.55469 C 187.06377 355.55469 186.66602 355.15693 186.66602 354.66602 L 186.66602 329.77734 C 186.66602 329.28643 187.06377 328.88867 187.55469 328.88867 z M 329.77734 328.88867 L 354.66602 328.88867 C 355.15693 328.88867 355.55469 329.28643 355.55469 329.77734 L 355.55469 354.66602 C 355.55469 355.15693 355.15693 355.55469 354.66602 355.55469 L 329.77734 355.55469 C 329.28643 355.55469 328.88867 355.15693 328.88867 354.66602 L 328.88867 329.77734 C 328.88867 329.28643 329.28643 328.88867 329.77734 328.88867 z M 0.88867188 337.77734 C 0.39775237 337.77734 0 338.1751 0 338.66602 L 0 399.11133 C -7.4014794e-17 399.60224 0.39775237 400 0.88867188 400 L 61.333984 400 C 61.824904 400 62.222656 399.60224 62.222656 399.11133 L 62.222656 338.66602 C 62.222656 338.1751 61.824904 337.77734 61.333984 337.77734 L 0.88867188 337.77734 z M 196.44531 337.77734 C 195.9544 337.77734 195.55469 338.1751 195.55469 338.66602 L 195.55469 345.77734 C 195.55469 346.26825 195.9544 346.66602 196.44531 346.66602 L 203.55469 346.66602 C 204.0456 346.66602 204.44531 346.26825 204.44531 345.77734 L 204.44531 338.66602 C 204.44531 338.1751 204.0456 337.77734 203.55469 337.77734 L 196.44531 337.77734 z M 338.66602 337.77734 C 338.1751 337.77734 337.77734 338.1751 337.77734 338.66602 L 337.77734 345.77734 C 337.77734 346.26825 338.1751 346.66602 338.66602 346.66602 L 345.77734 346.66602 C 346.26825 346.66602 346.66602 346.26825 346.66602 345.77734 L 346.66602 338.66602 C 346.66602 338.1751 346.26825 337.77734 345.77734 337.77734 L 338.66602 337.77734 z M 9.7773438 346.66602 L 52.445312 346.66602 C 52.936232 346.66602 53.333984 347.06378 53.333984 347.55469 L 53.333984 390.22266 C 53.333984 390.71357 52.936232 391.11133 52.445312 391.11133 L 9.7773438 391.11133 C 9.2864242 391.11133 8.8886719 390.71357 8.8886719 390.22266 L 8.8886719 347.55469 C 8.8886719 347.06378 9.2864242 346.66602 9.7773438 346.66602 z M 18.666016 355.55469 C 18.175096 355.55469 17.777344 355.9544 17.777344 356.44531 L 17.777344 381.33398 C 17.777344 381.82489 18.175096 382.22266 18.666016 382.22266 L 43.554688 382.22266 C 44.045607 382.22266 44.445312 381.82489 44.445312 381.33398 L 44.445312 356.44531 C 44.445313 355.9544 44.045607 355.55469 43.554688 355.55469 L 18.666016 355.55469 z M 383.11133 391.11133 C 382.62042 391.11133 382.22266 391.50909 382.22266 392 L 382.22266 399.11133 C 382.22266 399.60224 382.62042 400 383.11133 400 L 390.22266 400 C 390.71357 400 391.11133 399.60224 391.11133 399.11133 L 391.11133 392 C 391.11133 391.50909 390.71357 391.11133 390.22266 391.11133 L 383.11133 391.11133 z " />
   <path
      d="m 200,125 a 75,75 0 0 0 -10.67383,0.76367 75,75 0 0 0 -10.45703,2.27344 75,75 0 0 0 -10.02539,3.74023 75,75 0 0 0 -9.39258,5.12891 75,75 0 0 0 -8.5664,6.41211 75,75 0 0 0 -7.56641,7.56641 75,75 0 0 0 -6.41211,8.5664 75,75 0 0 0 -5.12891,9.39258 75,75 0 0 0 -3.74023,10.02539 75,75 0 0 0 -2.27344,10.45703 A 75,75 0 0 0 125,200 a 75,75 0 0 0 0.76367,10.67383 75,75 0 0 0 2.27344,10.45703 75,75 0 0 0 3.74023,10.02539 75,75 0 0 0 5.12891,9.39258 75,75 0 0 0 6.41211,8.5664 75,75 0 0 0 7.56641,7.56641 75,75 0 0 0 8.5664,6.41211 75,75 0 0 0 9.39258,5.12891 75,75 0 0 0 10.02539,3.74023 75,75 0 0 0 10.45703,2.27344 A 75,75 0 0 0 200,275 a 75,75 0 0 0 10.67383,-0.76367 75,75 0 0 0 10.45703,-2.27344 75,75 0 0 0 10.02539,-3.74023 75,75 0 0 0 9.39258,-5.12891 75,75 0 0 0 8.5664,-6.41211 75,75 0 0 0 7.56641,-7.56641 75,75 0 0 0 6.41211,-8.5664 75,75 0 0 0 5.12891,-9.39258 75,75 0 0 0 3.74023,-10.02539 75,75 0 0 0 2.27344,-10.45703 A 75,75 0 0 0 275,200 a 75,75 0 0 0 -0.0898,-3.67969 75,75 0 0 0 -0.27149,-3.67187 75,75 0 0 0 -0.45117,-3.65235 75,75 0 0 0 -0.62891,-3.62695 75,75 0 0 0 -0.80664,-3.5918 75,75 0 0 0 -0.98047,-3.54882 75,75 0 0 0 -1.15625,-3.4961 75,75 0 0 0 -1.32421,-3.43359 75,75 0 0 0 -1.49219,-3.36524 75,75 0 0 0 -1.6543,-3.28906 75,75 0 0 0 -1.81445,-3.20312 75,75 0 0 0 -1.97071,-3.10938 75,75 0 0 0 -2.11914,-3.00976 75,75 0 0 0 -2.26367,-2.90235 75,75 0 0 0 -2.40429,-2.78711 75,75 0 0 0 -2.53907,-2.66601 75,75 0 0 0 -2.66601,-2.53907 75,75 0 0 0 -2.78711,-2.40429 75,75 0 0 0 -2.90235,-2.26367 75,75 0 0 0 -3.00976,-2.11915 75,75 0 0 0 -3.10938,-1.9707 75,75 0 0 0 -3.20312,-1.81445 75,75 0 0 0 -3.28906,-1.6543 75,75 0 0 0 -3.36524,-1.49219 75,75 0 0 0 -3.43359,-1.32421 75,75 0 0 0 -3.4961,-1.15625 75,75 0 0 0 -3.54882,-0.98047 75,75 0 0 0 -3.5918,-0.80664 75,75 0 0 0 -3.62695,-0.62891 75,75 0 0 0 -3.65235,-0.45117 75,75 0 0 0 -3.67187,-0.27149 A 75,75 0 0 0 200,125 Z m 34.71484,24.00195 c 0.4642,0 0.92841,0.0216 1.39063,0.0645 0.46234,0.0428 0.92249,0.10806 1.3789,0.19336 0.45632,0.0853 0.90896,0.1913 1.35547,0.31835 0.44658,0.12707 0.88737,0.27367 1.32032,0.44141 0.43295,0.16764 0.8578,0.35564 1.27343,0.5625 0.41557,0.20698 0.82015,0.4333 1.21485,0.67774 0.39473,0.24433 0.77794,0.5074 1.14843,0.7871 0.37057,0.27984 0.7291,0.57584 1.07227,0.88868 0.34307,0.31275 0.67162,0.6413 0.98438,0.98437 0.31269,0.34318 0.60898,0.69974 0.88867,1.07031 0.27987,0.37049 0.54263,0.7537 0.78711,1.14844 0.24444,0.3947 0.47075,0.80122 0.67773,1.2168 0.20686,0.41563 0.39488,0.84049 0.5625,1.27344 0.16773,0.4328 0.31432,0.87388 0.44141,1.32031 0.12706,0.44666 0.23306,0.89899 0.31836,1.35547 0.0853,0.45627 0.15056,0.91672 0.19336,1.3789 0.0429,0.46238 0.0644,0.92627 0.0645,1.39063 -4e-5,0.65855 -0.0431,1.31528 -0.12891,1.9668 -0.0858,0.65151 -0.21428,1.29749 -0.38476,1.93359 -0.17041,0.63609 -0.38333,1.26007 -0.63477,1.86719 -0.25143,0.60711 -0.54187,1.19726 -0.87109,1.76757 -0.32932,0.57028 -0.69562,1.11737 -1.09571,1.63868 -0.40008,0.5213 -0.83508,1.0168 -1.30078,1.48242 -0.46562,0.46569 -0.95916,0.89875 -1.48047,1.29883 -0.5213,0.40008 -1.07034,0.76638 -1.64062,1.0957 -0.57032,0.32922 -1.16046,0.62161 -1.76758,0.87305 -0.60711,0.25143 -1.23109,0.4624 -1.86719,0.63281 -0.63609,0.17047 -1.28208,0.29896 -1.93359,0.38476 -0.65151,0.0858 -1.30825,0.12887 -1.9668,0.12891 v 67.82031 c 3e-5,0.36498 -0.0481,0.72563 -0.14453,1.07422 -0.0964,0.3486 -0.2402,0.68493 -0.42773,0.99805 -0.18758,0.31311 -0.41587,0.59816 -0.67774,0.84766 -0.26187,0.24949 -0.55708,0.4645 -0.8789,0.63671 -0.32181,0.1722 -0.66473,0.29751 -1.01758,0.37696 -0.35285,0.0795 -0.71552,0.1114 -1.08008,0.0937 -0.3645,-0.0176 -0.72487,-0.0842 -1.06836,-0.19727 -0.34349,-0.1131 -0.67095,-0.27221 -0.97461,-0.47461 l -32.67383,-21.7832 c -0.677,-0.4513 -1.37473,-0.86756 -2.09179,-1.25 -0.71706,-0.38244 -1.45315,-0.7302 -2.20508,-1.04102 -0.75196,-0.31089 -1.51903,-0.58477 -2.29688,-0.82031 -0.77784,-0.23554 -1.56713,-0.43331 -2.36523,-0.5918 -0.79807,-0.15845 -1.60334,-0.27791 -2.41211,-0.35742 -0.80877,-0.0795 -1.61995,-0.11914 -2.43359,-0.11914 h -30.14258 c -0.4948,2e-5 -0.98774,-0.0485 -1.4707,-0.14453 -0.48297,-0.096 -0.95693,-0.23839 -1.41407,-0.42773 -0.45711,-0.18939 -0.89333,-0.42367 -1.30273,-0.69727 -0.4094,-0.2736 -0.79079,-0.58761 -1.14063,-0.9375 -0.34989,-0.34984 -0.6639,-0.73122 -0.9375,-1.14062 -0.2736,-0.40941 -0.50788,-0.84563 -0.69726,-1.30274 -0.18935,-0.45713 -0.33168,-0.9311 -0.42774,-1.41406 -0.0961,-0.48296 -0.14454,-0.9759 -0.14453,-1.4707 v -30.14258 c -1e-5,-0.4948 0.0485,-0.98579 0.14453,-1.46875 0.0961,-0.48297 0.23839,-0.95693 0.42774,-1.41407 0.18938,-0.4571 0.42366,-0.89333 0.69726,-1.30273 0.2736,-0.4094 0.58761,-0.79274 0.9375,-1.14258 0.34984,-0.34989 0.73123,-0.6639 1.14063,-0.9375 0.4094,-0.2736 0.84562,-0.50593 1.30273,-0.69531 0.45714,-0.18934 0.9311,-0.33363 1.41407,-0.42969 0.48296,-0.0961 0.9759,-0.14455 1.4707,-0.14453 h 30.14258 c 0.81364,0 1.62482,-0.0396 2.43359,-0.11914 0.80877,-0.0795 1.61404,-0.19897 2.41211,-0.35742 0.7981,-0.15849 1.58739,-0.35626 2.36523,-0.5918 0.77785,-0.23554 1.54492,-0.50942 2.29688,-0.82031 0.75193,-0.31082 1.48802,-0.65663 2.20508,-1.03906 0.71706,-0.38244 1.41479,-0.80066 2.09179,-1.25196 l 25.22461,-16.8164 c 0.19105,-0.54916 0.41479,-1.08791 0.66797,-1.61133 0.32923,-0.57036 0.69375,-1.11729 1.09375,-1.63867 0.40001,-0.52138 0.83515,-1.01672 1.30078,-1.48242 0.4657,-0.46564 0.96104,-0.89883 1.48243,-1.29883 0.52138,-0.40001 1.06831,-0.76647 1.63867,-1.09571 0.5703,-0.3293 1.16046,-0.61958 1.76758,-0.87109 0.60711,-0.25151 1.23107,-0.46429 1.86718,-0.63477 0.63611,-0.17039 1.28208,-0.29903 1.9336,-0.38476 0.65151,-0.0857 1.30825,-0.12895 1.96679,-0.12891 z"
      style="fill:#ffffff;stroke-width:10.1602"
      id="path2" />
</svg>