<?xml version="1.0" encoding="UTF-8" standalone="no"?>
<!-- Created with Inkscape (http://www.inkscape.org/) -->

<svg
   width="256"
   height="256"
   viewBox="0 0 67.733334 67.733335"
   version="1.1"
   id="svg5"
   xmlns="http://www.w3.org/2000/svg"
   xmlns:svg="http://www.w3.org/2000/svg">
   <defs
      id="defs2" />
   <g
      id="layer1">
      <path
         id="rect986"
         style="opacity:1;fill:#00ff00;stroke-width:0.529167;stroke-linejoin:bevel"
         d="M 4.7527184,42.150959 H 62.980616 V 65.847424 H 4.7527184 Z" />
      <path
         id="rect846"
         style="opacity:1;fill:#ff0000;stroke-width:0.529167;stroke-linejoin:bevel"
         transform="rotate(45)"
         d="M 25.027105,-22.266457 H 63.678049 V 16.384487 H 25.027105 Z" />
      <g
         aria-label="placeholder"
         id="text2654"
         style="font-size:10.3672px;line-height:1.25;font-family:'Ac437 IBM VGA 8x16';-inkscape-font-specification:'Ac437 IBM VGA 8x16';letter-spacing:0px;word-spacing:0px;stroke-width:0.264583">
         <path
            d="m 10.781757,63.361166 h 0.537799 v -5.1836 h -0.537799 v -0.64795 h 1.082077 v 0.64795 h 0.537798 v 3.23975 h 1.082077 v -3.23975 h -1.082077 v -0.64795 h 1.619875 v 0.64795 h 0.537799 v 3.23975 h -0.537799 v 0.64795 h -1.619875 v 1.2959 h 0.537799 v 0.64795 h -2.157674 z"
            id="path4796" />
         <path
            d="m 17.799038,61.417316 h 0.537799 v 0.64795 h -2.157674 v -0.64795 h 0.537799 v -5.1836 h -0.537799 v -0.64795 h 1.619875 z"
            id="path4798" />
         <path
            d="m 19.412416,61.417316 v -1.94385 h 0.537799 v -0.64795 h 1.619875 v -0.64795 h -1.619875 v -0.64795 h 2.164153 v 0.64795 h 0.537798 v 3.23975 h 0.537799 v 0.64795 h -1.075597 v -0.64795 H 21.57009 v -1.94385 h -1.075597 v 1.94385 h 1.075597 v 0.64795 h -1.619875 v -0.64795 z"
            id="path4800" />
         <path
            d="m 23.727746,61.417316 v -3.23975 h 0.537799 v -0.64795 h 2.701951 v 0.64795 h 0.537798 v 0.64795 h -1.075597 v -0.64795 h -1.619875 v 3.23975 h 1.619875 v -0.64795 h 1.075597 v 0.64795 h -0.537798 v 0.64795 h -2.701951 v -0.64795 z"
            id="path4802" />
         <path
            d="m 28.043076,61.417316 v -3.23975 h 0.537798 v -0.64795 h 2.701952 v 0.64795 h 0.537798 v 1.2959 h -2.695472 v 1.94385 h 1.619875 v -0.64795 h 1.075597 v 0.64795 h -0.537798 v 0.64795 h -2.701952 v -0.64795 z m 1.082076,-2.5918 h 1.619875 v -0.64795 h -1.619875 z"
            id="path4804" />
         <path
            d="m 32.358406,62.065266 v -0.64795 h 0.537799 v -5.1836 h -0.537799 v -0.64795 h 1.619875 v 2.5918 h 0.537799 v 0.64795 h -0.537799 v 3.23975 z m 2.157674,-3.8877 v -0.64795 h 1.082076 v 0.64795 h 0.537799 v 3.8877 h -1.075597 v -3.8877 z"
            id="path4806" />
         <path
            d="m 36.673735,61.417316 v -3.23975 h 0.537798 v -0.64795 h 2.701952 v 0.64795 h 0.537798 v 3.23975 h -0.537798 v 0.64795 h -2.701952 v -0.64795 z m 1.082076,0 h 1.619875 v -3.23975 h -1.619875 z"
            id="path4808" />
         <path
            d="m 43.691015,61.417316 h 0.537798 v 0.64795 H 42.07114 v -0.64795 h 0.537798 v -5.1836 H 42.07114 v -0.64795 h 1.619875 z"
            id="path4810" />
         <path
            d="m 45.304394,61.417316 v -2.5918 h 0.537798 v -0.64795 h 0.544278 v -0.64795 h 1.075597 v -1.2959 h -0.537798 v -0.64795 h 1.619875 v 5.83155 h 0.537798 v 0.64795 h -1.075597 v -0.64795 h -0.544278 v -3.23975 h -0.537798 v 0.64795 H 46.38647 v 2.5918 h 1.075597 v 0.64795 h -1.619875 v -0.64795 z"
            id="path4812" />
         <path
            d="m 49.619724,61.417316 v -3.23975 h 0.537799 v -0.64795 h 2.701951 v 0.64795 h 0.537799 v 1.2959 h -2.695472 v 1.94385 h 1.619875 v -0.64795 h 1.075597 v 0.64795 h -0.537799 v 0.64795 h -2.701951 v -0.64795 z m 1.082077,-2.5918 h 1.619875 v -0.64795 h -1.619875 z"
            id="path4814" />
         <path
            d="m 53.935055,62.065266 v -0.64795 h 0.537798 v -3.23975 h -0.537798 v -0.64795 h 1.082076 v 0.64795 h 0.537799 v -0.64795 h 1.619875 v 0.64795 h 0.537798 v 1.2959 h -1.075597 v -1.2959 h -0.544278 v 0.64795 H 55.55493 v 2.5918 h 0.537798 v 0.64795 z"
            id="path4816" />
      </g>
   </g>
</svg>